<?xml version="1.0" encoding="utf-8"?>
<!-- Generator: Adobe Illustrator 18.1.1, SVG Export Plug-In . SVG Version: 6.00 Build 0)  -->
<svg version="1.1" baseProfile="tiny" id="Layer_1" xmlns="http://www.w3.org/2000/svg" xmlns:xlink="http://www.w3.org/1999/xlink"
	 x="0px" y="0px" viewBox="0 0 612 792" xml:space="preserve">
<g>
	<path fill="#1300A4" d="M299.4,627.8c-0.6-1.2-2.9-7.1-4.5-12.3c-0.6-2.2-1.4-3.7-1.9-3.7s-1.7-1.7-2.8-3.9
		c-2-3.7-4.8-5.7-10.4-7.4c-1.1-0.3-6-2.6-11.3-5.1c-9-4.3-14.4-6.3-24-8.9c-2.5-0.8-6.8-2-9.3-3.1c-2.5-1.1-6.2-2-8.2-2.3
		c-2-0.3-4.3-0.8-5.4-1.1c-4.5-1.5-11.5-3.1-24.5-5.9c-5.4-1.2-15-3.5-22.6-5.9c-1.2-0.5-2.9-0.8-3.7-0.8c-2.3,0-17.8-5.1-30.7-10.2
		c-10.2-4-23.7-10.2-31-14.2c-1.1-0.6-4.3-2.3-7.4-3.9c-4.6-2.3-9.5-5.5-15.2-10c-4.6-3.7-13.9-13.1-16.7-16.9
		c-2-2.8-3.9-4.8-4.2-4.8s-1.4-1.5-2.5-3.2c-2.5-4.9-5.1-10-7.1-13.1c-1.1-1.5-2.3-4.9-2.8-7.4c-1.4-5.9-2.6-10.5-3.3-11.4
		c-0.3-0.5-0.8-3.9-1.1-7.5c-0.6-6.5-0.5-6.8,0.9-6.8c1.7,0,2,0.6,3.1,7.7c0.9,5.5,2.3,11.4,3.6,14.5c0.6,1.4,1.1,3.2,1.1,4
		s1.2,3.7,2.9,6.3c1.5,2.6,3.7,6.6,4.8,8.8c1.1,2.2,2.5,4.2,3.3,4.5c0.8,0.2,1.4,0.9,1.5,1.5c0.3,0.6,2,3.1,3.9,5.5
		c6.5,8.5,18.3,18.2,30.2,24.6c3.6,2,6.8,3.9,7.4,4.3c3.6,2.2,24.2,11.4,31.8,14.5c9.1,3.5,25.7,8.9,29.9,9.7
		c7.4,1.4,9.5,1.8,10.8,2.6c0.9,0.5,3.6,1.2,6.2,1.7c2.6,0.6,6.8,1.5,9.8,2.2c2.8,0.6,6.8,1.4,9,2c2.2,0.5,5.4,1.2,7.4,1.8
		s6.8,1.7,11.2,2.6c4.2,0.8,8.4,2,9.3,2.5c1.4,0.8,5.7,2.2,15.6,4.9c5.1,1.2,13,4.3,14.4,5.4c0.6,0.5,2.3,1.4,3.7,1.8
		c1.4,0.6,4.5,2,6.8,3.2c2.2,1.2,4.6,2.2,5.3,2.2s2.9,0.9,4.8,2c2.6,1.4,4,2.9,5.1,4.9c0.8,1.7,2.2,3.7,3.3,4.6
		c0.9,0.9,1.9,2.2,1.9,2.6c-0.2,1.5,4.3,13.6,4.8,13.6s0.6-0.3,0.6-0.8c0-0.5,0.9-2,2-3.5c1.1-1.5,2.3-4.3,2.8-6
		c2.9-10.6,6-14.8,13-16.9c2.3-0.8,5.1-2,6.2-2.8c1.1-0.8,5.9-2.6,10.5-4.3c4.8-1.7,9.8-3.5,11.3-4.3c1.4-0.6,4.3-1.8,6.2-2.5
		c2-0.6,7-2.3,11.3-3.9c4.3-1.5,8.7-2.8,9.9-2.8c1.9,0,6.4-1.1,29-6.6c2.6-0.6,5.6-1.2,6.7-1.2c0.9,0,3.9-0.8,6.4-1.5s7-2,9.8-2.8
		c2.8-0.8,7-2,9.3-2.8c2.3-0.8,7.4-2.3,11.3-3.4c3.9-0.9,8.5-2.5,10.5-3.2c1.9-0.8,5.9-2.3,8.8-3.5c4.6-1.8,16.9-7.5,20.6-9.7
		c0.6-0.5,3.4-1.8,6.2-3.1c2.8-1.4,6.8-3.9,9-5.4c2.3-1.7,5.3-3.5,6.7-3.9c1.5-0.5,2.9-1.8,3.9-3.5c0.8-1.5,3.9-4.6,6.8-6.9
		c11.2-9.1,19.7-20.8,26.2-35.6l3.1-7.4L551,449c0.2-23.7,0-28.3-1.1-33.6c-0.8-3.2-1.5-7.5-1.7-9.4c-0.3-2-0.8-4-1.2-4.6
		c-0.5-0.6-0.9-2.5-1.2-4.3c-1.4-7.1-3.1-13.7-4.2-15.9c-0.6-1.2-1.2-2.9-1.2-3.7s-0.9-4.2-2-7.5c-1.1-3.2-2-7.4-1.9-8.9
		c0.2-4.5,0-5.2-1.7-7.4c-1.7-2.2-4.8-12.8-6-20c-0.3-2.2-0.9-4.6-1.5-5.5c-0.5-0.9-0.8-2.9-0.8-4.5c0-1.7-0.6-3.7-1.2-4.6
		c-0.6-0.8-1.2-2.3-1.2-3.1c0-0.9-1.1-4.2-2.3-6.9c-3.1-6.9-3.9-9.4-4.6-17.3c-0.3-3.7-0.8-7.1-1.2-7.7c-2.2-3.4-3.1-44.1-1.2-52.7
		c0.6-2.5,1.4-6.8,1.5-9.7c0.3-2.8,0.9-5.9,1.5-6.6c0.6-0.9,0.9-2.5,0.9-3.5c0-1.1,1.2-4.8,2.8-8.3c1.5-3.5,3.1-7.7,3.9-9.2
		c1.7-4.8,6.7-14.2,8.5-16.2c2.2-2.3,7.4-9.9,7.4-10.5s-7.7-9.2-13-14.6c-9-9.1-14.9-14.5-20.9-19.1c-10.8-8.3-20.3-16.8-20.3-18.3
		c0-0.9-0.9-1.8-2.5-2.5c-1.4-0.6-4.3-2.9-6.7-5.1c-2.2-2.2-5.3-4.5-6.7-4.9c-1.4-0.5-3.9-2-5.6-3.2c-2.9-2.3-3.3-2.3-9.3-2.2
		c-3.6,0.2-6.7,0.6-7,0.9c-0.5,0.5-4.5,0.5-9,0.5c-4.5-0.2-17-0.5-27.7-0.6c-10.7-0.2-20.8-0.8-22.2-1.2c-1.4-0.5-4.5-1.1-6.8-1.2
		c-11.8-1.4-28-6.5-42.5-13.2c-4-1.8-7.4-3.4-7.6-3.4c-1.9,0-17.2-11.7-23.7-17.9l-7.9-7.5l-2.2,2.5c-5.3,6.5-10.8,11.6-15.8,14.8
		c-2.9,1.8-6,4-7,4.9c-0.9,0.9-2.9,1.8-4.5,2.3c-1.7,0.5-3.9,1.5-5,2.5c-1.2,0.9-2.9,1.7-3.9,1.7c-0.9,0-2,0.3-2.2,0.8
		c-0.9,1.4-13.9,7.1-21.7,9.4c-10.4,3.1-21.5,4.6-36.4,5.1c-6.8,0.2-12.7,0.6-13.2,1.1c-1.1,0.9-42,0.9-43.8-0.2
		c-2.5-1.2-8.2,0.6-9.8,3.1c-0.6,1.1-2.8,3.5-4.8,5.2c-2,1.7-6.4,5.9-9.8,9.1s-6.7,5.9-7.1,5.9c-0.5,0-1.9,1.2-3.4,2.6
		c-11.9,11.6-24.2,22.3-25.1,22.3c-0.3,0-2.2,1.5-4.2,3.4c-2,1.8-6.2,5.5-9.1,8.2c-3.1,2.6-6.2,5.5-6.8,6.6c-1.2,1.7-1.2,2,0.3,3.7
		c2.8,3.2,6.2,8.6,9,14.2c1.5,3.1,3.1,5.7,3.6,6c0.5,0.3,0.8,1.2,0.8,2c0,0.9,0.8,1.8,1.5,2.3c0.9,0.6,1.5,2,1.9,3.7
		c0.2,1.7,1.1,4.8,2,7.1c1.9,4.8,2.8,8,3.9,13.1c0.5,2,1.1,5.1,1.5,6.9c0.5,1.8,1.1,7.7,1.2,12.8c0.2,5.1,0.5,14.3,0.8,20.5
		c0.3,6.6,0.2,12.3-0.3,13.9s-1.2,5.5-1.5,8.9c-0.5,3.4-1.2,8.5-1.5,11.2c-0.5,2.8-0.9,6.8-1.2,8.9s-0.8,4.3-1.2,4.8
		c-0.8,0.9-3.6,10.5-4.3,14.5c-0.3,1.4-0.9,3.1-1.5,4c-0.6,0.9-1.2,3.2-1.5,5.4s-1.1,4.5-1.9,5.2c-0.8,0.9-1.5,3.5-1.9,6.6
		c-0.3,2.8-1.2,6.5-2,8.2c-0.8,1.7-1.5,5.1-2,7.4c-0.3,2.5-1.2,5.1-2,6c-0.8,0.9-1.4,2.5-1.4,3.5c0,0.9-0.8,3.2-1.5,5.2
		c-0.9,2-1.5,4.5-1.5,5.7c0,2-2.6,11.2-4.3,15.4c-0.6,1.4-1.1,3.4-1.1,4.3c0,2.3-2,9.7-3.1,11.9c-0.5,0.8-0.8,2.3-0.8,3.2
		c0,0.9-0.5,3.5-0.9,5.9c-0.6,2.9-1.4,4-2.5,4.5c-0.6,0.2-0.9,5.4-1.4,10c-0.3,3.5-0.5,6.8-0.8,6.8c-0.2,0-0.5-2.9-0.6-11.7
		c0-1.4,0-3.1-0.2-4.8c0-0.5-0.6-0.8-0.5-1.8c0.2-1.1,0.5-1.8,1.1-1.7c0.6,0.2,1.5-2.9,2.5-8.9c0.3-2.3,1.7-7.2,2.5-9.7
		c0.5-1.7,0.9-3.9,0.9-5.1s0.6-3.7,1.5-5.7c2.2-5.5,3.9-11.7,3.9-14c0-1.2,0.8-4,2-6.5c1.2-2.5,2-5.2,2-6c0-0.9,0.5-2.5,1.1-3.2
		c0.5-0.8,1.4-3.5,2-5.9c0.5-2.3,1.2-5.2,1.7-6.6c0.8-2.6,2-7.1,2.8-11.6c0.3-1.7,1.1-3.9,1.5-4.8c0.5-0.9,0.9-2.5,0.9-3.5
		c0-0.9,0.8-3.5,2-5.5c1.1-2.2,2-4.6,2-5.7c0-1.2,0.3-2.3,0.6-2.8c0.5-0.5,1.1-2.3,1.5-4.3c3.6-12.2,4.2-15.2,5.4-26.2
		c0.5-3.5,1.2-8.6,1.5-11.2c1.2-7.1,1.7-19.7,0.8-20.6c-0.5-0.6-0.8-4.8-0.8-10.6c0-5.4-0.3-10-0.8-10.2c-0.3-0.3-0.8-2.5-1.1-4.9
		c-0.5-5.2-3.9-16.9-6-21.4c-0.8-1.7-1.5-4-1.5-5.1c0-1.1-0.5-2.2-1.2-2.5c-0.6-0.3-1.2-1.1-1.2-2c0-0.9-0.5-1.8-0.8-2
		c-0.5-0.3-1.9-2.6-3.3-5.2c-2.8-5.7-8.5-14.5-10.2-15.9c-0.8-0.6-1.2-2.3-1.2-4.3c0-3.1,0.5-3.5,7.4-10.3c4.2-3.9,9.3-8.5,11.3-10
		c2-1.5,5-4,6.5-5.4c1.5-1.4,3.9-3.2,5.1-4.2s3.9-3.1,5.6-4.8c8.8-8.5,14.4-13.6,15.2-13.6c0.5,0,3.4-2.3,6.2-5.1
		c2.8-2.9,7.3-6.9,9.6-8.9c2.5-2.2,4.8-4.6,5.1-5.5c0.9-2.5,8.2-4.6,12.7-3.9c7.3,1.2,62,0.2,71.7-1.4c1.4-0.3,4.8-0.8,7.4-1.2
		c10.2-1.5,28.4-7.9,32.2-11.2c0.6-0.6,2.6-1.5,4.3-2c1.7-0.5,3.4-1.4,3.7-2c0.2-0.6,1.7-1.4,3.3-1.5c1.4-0.3,3.4-1.4,4.5-2.5
		c0.9-0.9,2.2-1.8,2.6-1.8s3.6-1.8,6.8-4c4.8-3.4,9.9-8.3,15.3-15.1c0.5-0.6,2.5-0.9,5.1-0.9c3.7,0,4.3,0.2,4.8,1.7
		c0.6,1.5,2.9,3.7,12.1,11.6c5.1,4.5,17.2,12.2,21.5,13.7c2.2,0.8,5.7,2.5,8.2,3.7c7.9,4,14.6,6,37.8,10.9c5.3,1.2,21.5,2,22.6,1.2
		c0.5-0.5,2.6-0.5,4.8-0.2c3.4,0.5,23.2,1.8,25.3,1.2c2-0.8,2.9-0.8,4.3,0c1.4,0.6,1.9,0.6,2.3-0.2c0.5-0.8,2.8-1.1,9.9-1.1
		c9,0,9.3,0.2,11.5,2c1.2,1.2,4.2,2.9,6.7,4c2.6,1.2,4.6,2.5,4.8,3.5c0.2,0.9,0.8,1.5,1.2,1.5s1.9,0.9,3.3,2c1.4,1.2,3.3,2.6,4,3.1
		c0.8,0.5,2,1.7,2.5,2.8c1.1,2.2,8.8,9.1,19.2,17.3c8.7,6.8,22,19.3,30.5,29c7.7,8.6,7.7,8.6-3.3,23.1c-2.5,3.4-5.4,9.2-8.4,16.2
		c-0.8,2-2.3,6-3.7,9.2c-1.4,3.1-2.3,6.5-2.3,7.5c0,0.9-0.5,2.6-0.8,3.5c-0.6,0.9-1.2,3.9-1.5,6.6c-0.5,2.8-1.1,7.1-1.5,9.4
		c-1.7,8.6-0.8,40.5,1.7,49c0.5,1.7,0.9,5.2,1.2,7.9c0.5,5.7,1.7,10.9,4.6,16.3c1.1,2.2,2,4.9,2,6.2c0,1.2,0.5,2.5,0.9,3.1
		c0.5,0.5,1.2,2.5,1.5,4.5c1.7,10.8,5.6,25.1,7.7,28.8c2.2,3.7,4.2,19.1,8.5,32.3c1.2,4.2,2.5,8.9,2.8,10.8c0.2,1.8,0.8,4,1.2,4.9
		c0.5,0.8,1.1,3.2,1.4,5.4s0.9,5.5,1.5,7.7c0.8,2.8,0.9,12.9,0.9,35.9v32l-3.3,8.3c-1.9,4.6-3.7,8.5-4,8.8c-0.5,0.2-1.5,2-2.5,4
		c-3.1,6-9.3,13.1-21.4,24.6c-2.3,2.2-5.3,5.1-6.7,6.5c-2.5,2.8-16,11.4-20.3,13.4c-1.5,0.6-3.7,1.7-4.8,2.3
		c-9,4.9-27.9,12.9-36.4,15.1c-2,0.5-6.4,1.8-10.1,2.9c-12.1,4-17.2,5.4-19.4,5.4c-1.2,0-2.8,0.6-3.7,1.2c-0.9,0.6-3.9,1.5-6.7,1.8
		c-4,0.5-14.7,2.9-30.8,6.9c-1.4,0.5-5.6,1.2-9,1.8s-8.5,2.3-11.5,3.5c-2.9,1.4-5.7,2.3-6.4,2.3s-2.5,0.8-4.2,1.5s-4.8,2-6.8,2.8
		c-5.9,2-12.7,4.6-17.7,7.1c-2.5,1.2-5.6,2.6-6.7,2.8c-3.6,0.9-6.4,4.9-9.3,13.1c-1.5,4.3-3.7,9.1-4.8,10.6
		c-1.7,2.3-2.5,2.8-5.1,2.8C301.4,628.7,299.8,628.3,299.4,627.8L299.4,627.8z"/>
	<path fill="#1300A4" d="M295.3,589.8c-2.9-2.2-21.5-9.9-37.3-15.4c-10.1-3.5-34.2-10.5-51.1-14.3c-19.7-4.5-39.2-9.7-49.4-13.1
		c-47.9-15.9-76.4-36.4-87.8-63.2c-5.4-12.5-7.1-23.7-6.5-42.4c0.8-22.6,4.3-39.1,18.7-86.3c17-55.3,21.8-80.4,21.1-108.9
		c-0.6-27-6.2-47.6-18.7-69.3c-6.5-11.2-6.5-11.1,6.7-22.6c22.3-19.7,46.8-41,49.1-42.8l2.5-2L163,110c51.3,0.9,92.5-8.5,121.6-27.9
		c4.2-2.8,9-6.3,10.7-7.9c2.6-2.2,3.7-2.8,6.8-2.8c3.3,0,4.2,0.5,8.7,4c7.6,6,14.6,10.5,25.7,15.6c28,13.4,62.9,19.6,105.2,18.6
		c15.5-0.3,19.5-0.2,21.2,0.6c1.1,0.6,5.1,3.9,8.7,7.1c3.7,3.2,9.5,8.5,12.9,11.4c15.6,13.4,38,33,38.9,34.2
		c1.9,2.2,0.8,7.7-2.9,13.6c-12.2,19.7-19.4,46.8-19.4,73.2c0,25.6,4.8,50.7,19.8,100c17,56.2,19.7,68.4,20.3,91.8
		c0.6,20.5-1.5,32.2-7.7,44.8c-4.5,8.9-7.4,13.1-14.4,20.3c-21.2,22-55.8,37.7-112.5,51c-23.2,5.4-28.5,6.8-40,10.2
		c-21.1,6.2-49.4,16.9-57.2,21.6C304.1,592.8,300,593,295.3,589.8L295.3,589.8z M308.3,584.4c2.9-1.7,5.7-3.1,6.2-3.1s2.3-0.8,4-1.5
		c6.7-3.1,9.8-4.2,20-7.7c18.4-6.6,31.5-10.5,44.8-13.9c3.7-0.8,7.7-2,9.1-2.3c1.4-0.5,5.4-1.4,8.8-1.8c3.4-0.5,7.9-1.5,9.9-2.2
		c2-0.6,6.4-2,10.1-2.8c7.7-2,22.9-6.5,28.4-8.5c2.2-0.8,6.4-2.3,9.3-3.2c14.7-5.1,32.8-14.8,45.7-24.3c6.2-4.6,16-14.2,17.8-17.6
		c0.5-0.8,0.9-1.4,1.4-1.5c1.2-0.8,6.2-10.3,8.7-16.8c7.9-20,6-51.3-5.3-89.2c-2.3-8-7.9-26.8-10.8-37c-1.1-3.7-3.6-12.2-5.4-18.5
		c-14.9-51.3-17.7-82.7-10.1-120.6c0.6-2.9,5.4-17.4,7.6-22.2c0.9-2.3,3.9-7.9,6.2-12.5c2.3-4.5,4.5-8.9,4.5-9.5
		c0-1.5-6.4-7.9-14.4-14c-2.9-2.3-8.1-6.8-11.3-9.9c-3.1-2.9-7-6.5-8.5-7.5c-1.5-1.2-4-3.5-5.9-5.1c-1.9-1.5-7-6.2-11.6-10.3
		l-8.5-7.4l-31-0.5c-17-0.2-32.7-0.8-34.7-1.2c-2.2-0.5-6.7-1.2-10.1-1.7c-8.4-1.2-22.9-4.8-33.3-8.2c-14.4-4.6-32.1-14.2-42.8-23.3
		c-2.2-1.8-4.3-3.4-4.6-3.4c-0.3,0-4,2.6-8.2,5.7c-4,3.1-9,6.5-10.7,7.4c-15.6,8.6-26.5,12.9-44.9,18.2c-2.5,0.6-10.4,2.3-17.8,3.7
		c-13,2.3-14.1,2.3-44.3,2.8l-31,0.5l-5.4,4.6c-2.9,2.5-6.7,5.9-8.2,7.1c-1.7,1.2-4.3,3.7-6.4,5.5c-3.6,3.4-11.3,10-29,25
		c-9.9,8.3-11.9,10.6-11.3,12.9c0,0.6,2,4.3,4.3,8.3c7.3,12.5,12.2,26.3,15.5,43.1c2,10,2,12.3,2.2,30.5c0,10.8-0.3,21.4-0.5,23.6
		c-4,26.2-7.3,39.7-16.9,71.3c-2.6,8.3-6.2,20-8.1,26.2c-7.6,25-11.2,40.2-13.2,57.5c-0.3,1.7-0.5,4.2-0.8,5.4
		c-0.3,1.4-0.6,6.5-0.8,11.6c-0.6,13.7,2.6,27.7,9.1,40.7c5.3,10.2,16,21.9,28.2,30.7c8.5,6,24.5,14.3,34.9,18.2
		c4.3,1.5,8.2,3.1,8.5,3.4c0.6,0.6,14.4,4.8,32.2,10c5.9,1.7,42.3,10.8,48,12c8.2,1.7,40.1,12,44,14.3c1.4,0.8,2.9,1.5,3.6,1.5
		c2.5,0,20.8,7.9,23.7,10C301.5,588.1,302.3,587.9,308.3,584.4L308.3,584.4z"/>
	<path fill="#FFFFFF" d="M322.1,550.8c-1.2-3.1-0.5-10,1.2-11.9c1.5-1.7,6.4-2,9-0.8c1.2,0.8,1.4,1.7,1.4,6.8c0,3.5-0.5,6.3-0.9,6.9
		c-0.6,0.5-2.9,0.9-5.4,0.9C323.2,552.8,322.9,552.6,322.1,550.8z"/>
	<g id="XMLID_2_">
		<g>
			<path d="M521.4,466.5c1.4,4,2.3,7.9,2.3,8.5c0,2.9-1.4,3.1-30.7,3.1c-15.6,0-54.8,0-86.9,0h-58.3l-4.5,4.5
				c-5.9,6-12.2,10-20.1,12.6c-12.1,4-22.9,4.6-35,1.8c-11.8-2.8-20.3-7.2-27.1-14.3c-2.3-2.3-4.3-3.9-6.2-4.2
				c-1.5-0.2-40.3-0.5-86.5-0.5c-24.5,0-44.6-0.2-59.2-0.2v-3.7c13.3,0.2,33.5,0.2,63.1,0.2h87.2l5.7,5.5
				c13.5,13.1,33.3,18,51.6,12.9c9-2.5,16.3-6.8,22.6-12.9l5.7-5.5h87.1c69.4,0,87.1-0.2,86.8-0.9c-0.2-0.6-2.6-8.5-5.6-17.6
				c-2.9-9.1-7.1-22.3-9.5-29.7c-2.2-7.1-7.1-22.6-10.8-34.3c-3.6-11.6-12.2-38.8-19.1-60.5c-6.8-21.6-14.4-45.6-16.7-53.3
				c-2.5-7.7-4.8-14.5-5.3-14.8c-0.6-0.6-24.3-3.2-24.8-2.8c0,0.3,9.8,31.7,16.9,54.4c6.7,20.8,10.1,31.9,18.9,60.5
				c3.7,11.9,8.1,25.9,9.8,31.3c14.6,46.4,14.9,47.1,14.4,51.1l-0.2,3.1l-7.7-0.2c-7.6-0.2-30.4-2.5-57.8-5.5
				c-32.8-3.9-60.4-3.9-81,0c-10.7,2-25.3,5.7-30.1,7.7c-5.1,2.2-11.3,2-17.2-0.3c-6.5-2.6-22.2-6.3-34.4-8.2
				c-10.1-1.5-19.2-2.2-29.4-2.2v-3.7c19.4,0.2,30.5,1.2,43.4,4.2c2,0.5,5.3,1.1,7.6,1.4c2.2,0.2,4,0.6,4,0.9c0,0.2,0.5,0.6,1.2,0.6
				c1.4,0,6.8,1.5,11.3,3.2c4.5,1.7,6.5,1.8,9.3,0.5c1.2-0.8,2.5-1.2,2.8-1.2c0.3,0,0.8-0.2,1.2-0.3c0.5-0.2,2.6-0.6,4.5-1.2
				c1.9-0.6,4.3-1.2,5.4-1.5c1.1-0.5,5.9-1.4,10.5-2.3c4.8-0.8,9.6-2,10.8-2.3s5.6-0.8,9.3-1.2c3.9-0.2,9.3-0.8,12.1-1.1
				c7.4-0.9,34.4,0.5,59.2,2.9c4.3,0.5,9.9,0.9,12.4,1.2c2.5,0.3,5.9,0.6,7.4,0.8c1.4,0.2,6.8,0.8,11.6,1.1s12.5,1.2,17,1.7
				s9.1,0.9,10.4,0.8c2-0.2,2.2-0.5,1.7-2.8c-0.6-3.2-3.1-11.6-5.9-19.9c-1.2-3.7-2.9-9.4-3.9-13.1c-0.9-3.7-2.9-10.6-4.6-15.4
				c-1.7-4.8-4.2-12.6-5.6-17.4c-4-12.3-9-28.5-11-35.1c-3.3-10.8-4-13.6-7.4-23.9c-1.7-5.7-3.9-12.3-4.6-14.6
				c-0.8-2.3-3.7-11.4-6.7-20.2c-6.8-21.1-7.4-21.3-8.1-0.5c-0.3,11.2-0.6,13.9-1.7,14.9c-0.9,1.1-3.6,1.4-12.4,1.7
				c-6,0.2-11.3,0.6-11.5,0.6c-0.2,0.2-0.5,4.9-0.6,10.5c-0.5,14.5-0.5,15.2-3.7,16.5c-1.7,0.8-5.4,1.1-10.4,1.1H377l0.5,5.2
				c0.2,2.9,0.5,5.2,0.6,5.4c0.2,0.2,13.8,0.2,30.1,0.2c35.2,0,33-0.6,33.2,8.3c0.3,11.1,0,17.1-0.9,18.6c-0.5,0.8-2.8,2.9-5.3,4.8
				c-2.3,1.8-6,4.8-8.2,6.8c-2.2,2-5.3,4.6-6.8,5.9c-1.4,1.4-4,3.9-5.6,6c-1.7,2-11.2,7.9-22.9,17.9c-7.9,6.6-23.1,16.9-28.8,19.4
				c-1.9,0.9-5.1,2.3-7.3,3.2c-7.6,3.2-18.4,4.5-42.8,4.5c-24.2,0.2-27.9,0-28.8-2c-0.5-0.8-0.9-3.9-1.1-6.9c-0.3-3.2-0.5-5.9-0.6-6
				c-0.2,0-8.1-0.5-17.4-0.6c-18.4-0.3-19.7-0.6-19.7-4.3c0-1.2,1.1-2.8,2.8-4.3c6.4-5.5,12.7-11.7,12.7-12.3
				c0-0.9-18.9-0.8-21.4,0.2c-2.2,0.8-10.7,8-17.7,14.8c-2,2.2-4.5,3.9-5.4,4c-1.7,0.5-18.3,1.1-36.6,1.5c-22.5,0.5-24-2.3-8.2-14.2
				c9-6.9,20.6-16.3,24.9-20.6c1.4-1.4,2.8-2.5,3.1-2.5c0.8,0,19.7-15.1,22-17.6c1.2-1.2,1.2-1.7,0.5-2.3c-0.6-0.3-13-0.6-27.7-0.8
				c-19.1-0.2-26.8-0.5-27.7-1.1c-1.9-1.5-2.8-4-3.4-8.8c-0.5-2.5-0.8-6-1.2-7.5c-0.5-2.6-0.3-3.1,3.4-6.6c2.2-2,6.4-5.5,9.1-7.9
				c2.9-2.3,8.4-7.4,12.2-11.1c3.9-3.7,8.5-8,10.4-9.4c1.7-1.4,3.9-3.2,4.6-4c7.7-7.4,20-18.5,21.5-19.4c0.9-0.6,5.1-4.6,9.3-8.8
				c4.3-4.2,9.8-8.9,12.2-10.8l4.6-3.1l23.2,0.2c24.8,0.3,28.2,0.8,29.3,3.9c0.6,1.5-0.2,2.6-5,7.9c-2.9,3.2-6.5,6.6-7.4,7.2
				c-1.1,0.8-7.1,6.3-13.3,12.3c-6.4,6.2-12.5,12.2-13.9,13.2c-6.4,5.2-19.2,17.7-18.7,18.3c0.3,0.3,5.7,0.6,12.1,0.6
				c13.5,0,13.2,0,21.5-8.5c2.3-2.3,6-5.9,8.4-7.7c7.6-6.2,17.5-14.9,18.1-16c0.3-0.6,2.6-2.5,5.1-4.5c2.3-2,7.4-6.3,11.2-9.9
				c11.3-10.8,16.1-14.8,19.1-16.2c2.8-1.4,5.7-1.4,44.9-0.9l42,0.3v-1.5c0-0.9-0.3-2.6-0.8-4c-0.5-1.2-0.9-3.2-1.2-4.5
				c-0.3-1.7-0.9-2.2-3.7-2.5c-7.4-1.2-15.3-3.1-15.3-3.7c0-0.5-0.3-0.6-0.6-0.2c-0.5,0.2-2.2,0.2-4.2,0c-2.6-0.5-2.9-0.8-1.7-1.2
				c1.2-0.6,0.9-0.6-1.2-0.6c-4.8,0.2-6.7-0.2-5.6-0.8c0.6-0.5-0.5-0.8-2.5-0.8s-4-0.5-4.5-0.8c-0.5-0.5-1.2-0.6-2-0.5
				c-0.8,0.3-1.1,0.2-0.8-0.2c0.3-0.5-0.5-0.8-2-0.5c-2,0.2-2.3,0.2-1.4-0.6c0.6-0.5,0.6-0.6,0.2-0.6l0.2-4.3l0,0
				c3.3,0.2,5,0.5,18.7,3.4c11.8,2.5,13.8,3.1,14.9,4.5c0.6,0.8,0.9,0.9,0.6,0.5c-0.6-1.1,0.6-1.2,4.2-0.6c1.4,0.3,2.2,0.8,2.2,1.1
				c-0.2,0.2,1.2,0.5,2.8,0.5c1.9,0,7.3,0.5,12.2,0.8c4.8,0.6,11.5,1.2,14.7,1.5c7,0.5,7.9,1.2,10.2,9.2c3.7,12.5,7.1,23.6,9.1,29.7
				c1.2,3.7,3.7,11.2,5.4,16.9s4.5,14.5,6,19.3c1.4,4.8,3.6,11.6,4.5,14.6c1.7,5.4,7.3,23.1,14.4,45.1c1.7,5.1,5,15.4,7.4,23.1
				c2.5,7.7,5.3,16.8,6.7,20.5c1.2,3.7,3.3,10.2,4.5,14.6C518.1,455.6,520.1,462.5,521.4,466.5z M435.2,372.4
				c0.9-1.7,1.4-13.2,0.5-15.6c-0.6-1.5-3.4-1.5-3.4-0.2c0,1.7-49.1,44.5-61.4,53.4c-6.8,4.8-17.7,10.9-23.1,12.6
				c-4.6,1.5-7.1,1.7-29.6,2l-24.6,0.3v-3.5c0-3.2,0.3-3.9,3.6-6.9l2.9-2.9l0.6-0.6h8.2c6.4,0,8.1-0.2,7.3-0.9
				c-1.5-1.5-1.1-6,0.9-7.7c2.6-2.5,18.4-16.3,20.8-18.2c1.4-1.1,3.7-1.7,7.6-2l5.6-0.6v-3.2c0-3.1,0.3-3.5,10.5-12.8l10.4-9.7
				l0.2-5.1c0-2.8-0.3-5.4-0.6-5.9c-1.1-1.5-3.9-2.6-6.7-2.6c-2.8,0-2.8,0-2.8,3.4v3.5l-24.9,23c-13.6,12.6-27.9,25.6-31.3,28.6
				c-2,1.7-5.1,4.6-8.2,7.5c-2.5,2.3-5.1,4.8-7.4,6.8l-9.3,8.6l3.3,0.2l3.3,0.2l0.6,7.4c0.5,4,1.1,7.5,1.5,7.9s10.7,0.6,22.8,0.6
				c16,0,23.4-0.3,27.7-1.2c15.2-2.9,30.2-11.4,51-28.8c21.5-18,26.8-22.5,27.3-23.3c0.2-0.5,4-3.5,8.2-6.9
				C430.6,376.9,434.8,373.4,435.2,372.4z M407.5,370.9c14.1-12,14.9-12.8,14.4-13.7c-0.3-0.5-8.1-0.8-20.9-0.8h-20.5l-4.8,4.6
				c-2.6,2.5-5.1,4.6-5.4,4.6s-2.5,2.3-4.6,5.1c-3.3,4-3.7,5.2-2.9,5.9c2.3,1.5,8.7-1.8,13.8-7.4c1.4-1.5,3.6-3.9,4.6-5.1
				c4.8-5.1,26.5-4.9,26.3,0.2c-0.2,2-2.2,4.6-9.1,11.7c-4,3.9-7.1,7.4-7.1,7.7c0,0.6,3.9-1.8,5.1-3.1
				C396.8,380.1,401.8,375.7,407.5,370.9z M419.1,291.1c0.3-11.7,0.2-13.2-0.8-13.2c-0.9,0-1.2,0.6-0.9,2.8c0.3,2.3-0.2,3.5-4,8.5
				l-4.3,5.5l-5.3,0.5c-2.9,0.3-16.7,0.6-30.7,0.6h-25.4L344,299c-2,1.7-5.9,5.4-8.8,8.2l-5.1,4.8h7.7h7.6v-3.1v-3.1h21.1
				c11.6-0.2,28-0.3,36.6-0.6l15.5-0.5L419.1,291.1z M405.8,287.6c1.4-1.2,2.5-2.9,2.5-3.7c0-1.4-1.7-1.4-32.5-1.4h-32.4l-5.3,4.8
				c-2.8,2.6-6.8,6.3-8.8,8.3c-2,2-5.9,5.4-9,7.7c-2.9,2.5-7.4,6.3-10.1,8.8s-5.7,5.2-7,6.3c-0.5,0.5-0.9,0.8-1.4,1.1
				c-6.7,5.5-9.9,8.5-17.4,15.7c-4.8,4.8-9.9,9.1-11.3,9.9c-2,0.9-6.4,1.4-18.6,1.7c-8.7,0.3-16,0.6-16.1,0.8
				c-0.2,0.2,3.9,0.3,9,0.5c5.1,0,10.8,0.5,12.7,1.1c4.6,1.4,5,1.4,7.4,0c1.5-0.8,4.8-1.2,11.6-1.2c5.1,0,9.6-0.2,9.8-0.5
				c0.3-0.3-0.5-1.2-1.4-2c-1.9-1.4-1.9-1.5-0.9-4.3c0.6-1.7,4-5.9,8.5-10.6c4.2-4.3,7.7-8.3,7.9-9.1c0.2-0.5,0.3-0.8,0.5-0.9
				c0.3-0.3,0.5-0.5,0.8-0.5c0.5,0,1.2-0.6,1.9-1.4c0.6-0.9,2.8-1.4,8.2-1.7l7.3-0.5l-0.3-2.3c-0.3-3.2,1.9-5.9,16.6-19.1
				c1.2-1.2,3.7-2.8,5.4-3.7c2.9-1.5,4.3-1.5,31.6-1.7h28.4L405.8,287.6z M391.8,372.4l7.3-6.8h-5.3h-5.1l-7.7,8.2
				c-4.3,4.5-8.4,8.3-9.1,8.5c-1.2,0.5-1.4,1.2-1.4,4c0,2.8-0.5,4-2.2,5.7c-3.3,3.4-1.2,2.5,3.6-1.5S381.3,382.3,391.8,372.4z
				 M393.5,323.9c0-4.3-0.3-8.3-0.6-8.6c-0.3-0.5-1.9-1.2-3.3-1.4c-1.4-0.3-3.3-0.6-3.9-0.9c-0.9-0.3-1.2,0.5-1.2,3.5
				c0,6.9,2.2,6.6-37.8,6.6c-21.8,0-35.5,0.3-36.3,0.8c-1.1,0.6-7.4,7.7-15.2,16.8c-1.1,1.2-0.5,1.4,11,1.4h12.1v-2.6
				c0-5.2-1.4-5.1,37.6-5.1c30.8,0,35.3-0.2,36.3-1.2C393.4,331.9,393.5,329.9,393.5,323.9z M382.7,392.3c2.2-2.5-1.2-1.1-4.6,2
				c-2,1.7-2.9,3.1-2.3,2.9c0.6-0.2,1.7-0.9,2.5-2c0.8-0.9,1.9-1.7,2.5-1.7C381.3,393.4,382.1,392.8,382.7,392.3z M357.3,411.2
				c4.2-1.8,7.7-4.8,7.3-5.5c-0.5-0.6-3.6,0-4.3,0.8c-0.3,0.2-2.5,1.7-5.1,3.2c-4.6,2.9-8.1,3.9-15.3,4.8c-2,0.3-5,0.6-6.2,0.8
				c-3.6,0.6-15.6,1.2-22.9,1.4c-5.7,0.2-6.7,0.3-6.8,1.7c-0.3,1.2,0,1.4,1.9,0.9c1.2-0.3,8.4-0.5,16-0.5c12.1,0,14.7-0.2,21.7-2
				c4.3-0.9,8.4-2.3,9.1-2.9C353.1,413.4,355.3,412.2,357.3,411.2z M359.9,390.6l3.1-3.1l-7-0.2c-9.8-0.3-13,0.6-18.3,5.4
				c-2.5,2.3-6,5.4-8.2,7.1c-2.3,2-3.6,3.5-3.3,4c0.8,1.2,0.8,1.2,10.1-0.6c4.3-0.9,9.8-2.5,11.8-3.5
				C352,398,353.4,396.9,359.9,390.6z M349.2,351.6c2.2-2.2,4-4,4-4.5s-4.3-0.8-10.1-0.6c-5.7,0-10.1,0.3-10.1,0.8s0.6,0.8,1.5,0.8
				s2.8,0.6,4,1.2c2,1.1,2.3,1.5,1.9,3.2c-0.5,2-5.6,7.9-10.5,12.2c-2,1.8-9.9,11.2-11,13.2c-1.1,1.8,0.9,0.9,4.3-2
				c4.3-3.7,15.8-14.3,19.4-17.9C344.1,356.4,347.1,353.5,349.2,351.6z M319.9,365.8l11.3-11.4l-12.1-0.5c-6.7-0.2-20.5-0.2-30.5,0
				l-18.6,0.3l-7,6.6c-3.9,3.5-9.5,8.8-12.4,11.4l-5.4,4.8H277h31.6L319.9,365.8z M311.3,386.4c5.3-4.6,6.2-7.2,2-4.9
				c-1.4,0.8-5,1.4-9.5,1.5c-7.1,0.3-7.1,0.5-6,2c0.6,0.9,1.2,2.3,1.2,2.9c0,0.8-3.4,4.3-7.4,8.2c-4.2,3.9-10.1,9.1-13,11.9
				c-2.9,2.8-7.1,6.3-9.1,8.2c-2,1.7-3.6,3.2-3.6,3.7s1.9,0.6,4.2,0.6c4.2,0,4.2,0,12.2-7.1c4.3-3.9,9.3-8.2,10.7-9.4
				c1.4-1.2,5.1-4.6,8.2-7.5C304,393.4,308.6,388.9,311.3,386.4z M291.7,281.6l2.3-1.7l-11.6-0.5c-6.5-0.3-13-0.8-14.9-1.1l-3.4-0.6
				v3.5c0,3.1-0.3,3.9-2.9,6.2c-3.3,2.8-33.8,31.3-48.8,45.4l-9.6,9.1h15.3h15.2V339c0-2.8,0.5-3.5,7.1-9.4
				c4-3.7,11.2-10.5,16.1-15.1C275.3,296.3,289.4,283.2,291.7,281.6z M280,398l9.9-8.8l-27.4-0.2c-15-0.2-28.2,0-29.1,0.2
				c-0.9,0.2-4.3,2.8-7.7,5.7c-3.3,2.8-8.8,7.5-12.2,10.5c-11.9,10-21.2,18.2-21.2,18.5c0,0.8,17.8,0.3,19.8-0.5
				c1.2-0.5,6.2-4.8,11.5-9.5c5.1-4.8,10.1-9.1,11-9.7c1.9-0.9,28.4-1.2,32.7-0.5c1.2,0.3,2.5,1.1,2.6,1.7
				C269.9,406.5,273.2,404,280,398z M255.6,423.7c0-1.1-0.3-1.1-1.2-0.3c-0.6,0.6-1.2,1.1-1.2,1.2c0,0.2,0.5,0.3,1.2,0.3
				S255.6,424.3,255.6,423.7z M245.3,360.7l9.3-7.5l-38.7,0.5c-21.4,0.2-40,0.2-41.2,0c-2-0.3-2.6-0.9-2.6-2c0-1.5,0-1.5-2,0.2
				c-1.7,1.5-2,2.5-2,7.1c0,9.1-3.1,8.3,33,8.3c31,0,31.5,0,31.8,1.5c0.5,1.4,0.6,1.5,1.7,0.6C235.3,368.7,240.2,364.9,245.3,360.7z
				 M252.9,286.2c0.8,0.2,0.6-1.2-0.3-1.7c-0.5-0.2-0.8,0-0.8,0.3c0,0.5-0.5,0.8-0.9,0.8c-1.2,0-7.4,5.2-17.4,14.5
				c-3.9,3.5-8.1,7.4-9.3,8.5c-8.2,7.1-14.6,12.8-19.5,17.6c-3.1,3.1-6.7,6.2-7.7,6.9c-5.6,4.6-14.1,13.2-13.6,14.2
				c0.6,1.1,13.3,1.2,14.1,0c0.2-0.5,0-0.9-0.8-1.2c-0.8-0.3-1.2-1.5-1.2-3.1c0-2.2,0.8-3.4,3.4-6.2c2-2,3.6-3.5,3.9-3.5
				c0.2,0,5.4-4.9,11.5-10.9c6.2-6,13.5-12.9,16.1-15.2c2.8-2.5,8.8-8.2,13.5-12.8C248.4,289.9,252.4,286.2,252.9,286.2z
				 M238.3,383.2c0.6-0.6-2.2-4.3-3.1-4.5c-0.5,0-2.3,1.1-4.5,2.3c-3.9,2.6-5,4.3-2,3.4c0.9-0.3,3.4-0.6,5.4-0.8
				C236.3,383.7,238.1,383.4,238.3,383.2z M196.8,410.3c0-1.1-5.9,2.2-9.1,5.2c-1.2,0.9-2.6,2-3.4,2.2c-1.7,0.6-2.5,2.8-0.9,2.8
				c0.6,0,2-0.5,2.8-0.8c0.9-0.6,1.9-1.2,2.2-1.4c0.2-0.3,2.2-2,4.5-3.9C194.9,412.5,196.8,410.6,196.8,410.3z M172.8,423.9
				c0-0.6-0.3-1.2-0.8-1.2s-1.1,0.6-1.5,1.2c-0.8,0.9-0.8,1.2,0.8,1.2C172,425,172.8,424.5,172.8,423.9z"/>
			<path d="M378.2,246.7l-0.2,4.3c-0.3,0-0.9,0-1.9,0.2c-1.5,0.2-6.8-0.2-11.9-1.1c-12.5-2-26.3-3.1-29-2.2
				c-0.6,0.2-2.8,0.6-4.5,0.9c-4,0.6-14.4,4.6-15.6,6.2c-0.5,0.6-1.2,1.1-1.5,1.1c-0.5,0-0.5-0.6,0.2-1.2c1.5-1.8,0.5-1.4-1.2,0.6
				c-0.9,1.1-1.1,1.4-0.3,0.9c0.6-0.3,0.2,0.5-1.1,1.7c-1.2,1.4-2.5,2.3-2.8,2.2c-0.3-0.2-1.1,0.2-1.7,0.9c-0.9,1.1-0.9,1.2,0,0.6
				c1.2-0.8,1.2-0.6-1.1,3.7c-2,4-4.2,3.9-7.3-0.5c-2.5-3.2-3.1-5.1-1.5-4c0.5,0.3,0.6,0.3,0.3-0.5c-0.3-0.5-0.9-0.6-1.2-0.5
				c-0.3,0.2-1.9-0.8-3.3-2.3c-1.4-1.5-2.3-2.8-2-2.8c0.5,0,0.3-0.6-0.3-1.2c-0.6-0.6-1.2-1.2-1.9-1.2c-0.5,0-0.2,0.6,0.8,1.2
				c0.8,0.6,1.1,1.2,0.6,1.2c-1.2,0-4.3-2.3-4-2.9c0.2-0.3-0.6-0.6-1.7-0.6c-1.2-0.2-3.4-0.8-4.8-1.4s-2-1.1-1.2-0.8
				c0.9,0.3,1.2,0.2,0.9-0.2c-0.6-0.6-3.7-0.9-8.8-0.9c-1.4,0-2.8-0.2-3.3-0.5c-0.3-0.2-4.3-0.6-9-0.8c-5.3-0.2-7.6,0-6,0.5
				c1.9,0.5,1.4,0.6-1.9,0.3c-2.3-0.2-3.9,0-3.6,0.5c0.3,0.5-0.5,0.8-1.4,0.8c-1.1,0-3.1,0.2-4.5,0.5c-2.3,0.3-2.3,0.2-0.8-0.3
				c1.5-0.5,1.5-0.6,0.5-0.8c-0.8,0-2,0.5-2.8,1.2c-0.9,0.9-3.1,1.2-6.4,1.4c-2.8,0.2-4.6,0.5-4,0.8c0.5,0.5-0.3,0.6-1.5,0.5
				c-1.4-0.2-2.3,0-2.2,0.2c0.6,0.9-9.8,3.1-12.4,2.6c-2-0.5-2.2-0.3-1.2,0.5c0.9,0.8,0.8,0.8-0.6,0.6c-0.9-0.2-1.7-0.2-1.7,0.5
				c0,0.5-1.4,0.6-3.3,0.3c-1.9-0.2-2.6-0.2-1.7,0.2c1.5,0.5-6.8,2.8-13.9,3.7c-6.8,0.9-7.1,1.2-9.1,8.2c-3.3,10.5-7.7,25-10.5,33.6
				c-1.4,4.5-2.8,8.5-3.1,8.9s-0.9,2.8-1.5,5.2c-0.6,2.5-1.2,4.6-1.7,4.8c-0.2,0.2-0.3,0.5-0.5,0.8l-3.7-1.2
				c5.9-19.1,10.5-33.9,13.3-42.7c2.3-7.5,4.6-14.6,4.8-15.9l0.6-2.2l-11.8,0.9c-6.4,0.6-12.1,1.2-12.7,1.4
				c-0.8,0.3-2.9,6.6-14.6,43.1c-2.8,8.9-9.5,30.5-15.2,47.7c-5.4,17.4-16.3,51.1-23.7,75.2c-7.6,23.9-13.9,43.9-14.1,44.5
				c-0.2,0.5,5.6,0.6,23.7,0.8v3.7c-16.6-0.2-26-0.3-26.6-0.6c-2.6-0.9-2.5-1.4,3.6-20c6.2-19.4,8.8-27.7,10.8-34.3
				c3.6-11.7,10.4-33.1,14.7-46.7c2.6-7.9,5.3-16.3,6-18.9c3.6-11.1,7.3-23.6,8.7-28.2c2.8-9.1,7.9-25.1,8.5-26.6
				c0.6-1.4,2.2-6.3,9.5-30c1.2-4.3,2.9-9.2,3.7-10.8l1.4-3.2l5.7-0.5c3.1-0.2,10.7-0.9,16.9-1.7c6-0.6,12.2-1.1,13.6-0.8
				c1.5,0.2,1.9,0.2,0.9-0.2c-1.1-0.5-0.3-0.9,3.1-1.5c2.5-0.5,7.4-1.7,11.2-2.5c3.7-0.8,13.6-2.9,22.2-4.6
				c32.8-6.6,45.6-7.1,60.4-1.8c6.5,2.3,13.8,6.9,13,8.2c-0.3,0.5-0.2,0.6,0.3,0.5c1.1-0.6,3.6,2.2,3.1,3.1c-0.8,1.2,4,0.5,5.6-0.8
				c0.8-0.8,1.7-1.1,2-0.8c0.3,0.5,0.5,0,0.3-0.6s0.3-1.1,0.9-1.2s1.1-0.5,1.1-0.9c-0.3-0.8,4.3-4.8,5.4-4.8c0.3,0,2.3-0.8,4.5-1.8
				c6.2-2.8,9.8-3.5,20.8-4c7.1-0.5,20.6,0.8,28.7,2.5c1.1,0.2,3.1,0.6,4.5,0.8c1.4,0.3,2.3,0.8,2.2,1.1
				C375.1,246.4,376.5,246.7,378.2,246.7z"/>
			<path d="M229.3,448.5v3.7c-5.3,0-10.8,0.2-17,0.6c-14.9,0.8-23.9,1.7-56.2,5.4c-17.8,2-36.4,3.5-38,2.8
				c-2.5-0.9-1.2-7.9,5.9-29.3c0.8-2.5,3.3-10.3,5.4-17.4c2.2-7.1,5-15.9,6.2-19.7c1.2-3.9,5.6-17.9,9.8-31.3
				c4.8-15.6,9.3-29.9,13-42.2l3.7,1.2c-0.2,0.5-0.2,0.9-0.2,1.4c0,0.9-1.9,7.4-3.9,14c-2.2,6.8-4.8,15.1-5.7,18.5
				c-2,6.3-7.9,25.3-12.5,39.7c-1.4,4.5-3.3,10.8-4.3,13.9c-1.1,3.1-2.3,7.7-3.1,10c-0.8,2.3-2.2,6.9-3.1,10.5
				c-1.5,5.2-6.7,21.3-8.2,25.1c-0.8,2,1.4,2.3,8.8,1.5c3.6-0.5,8.7-0.8,11.3-1.1c2.5-0.2,7.6-0.6,11.3-1.2c3.6-0.5,12.1-1.4,18.6-2
				c6.7-0.8,13.8-1.5,16-2c6.8-1.2,22.6-2,40.7-2C228.2,448.5,228.8,448.5,229.3,448.5z"/>
		</g>
	</g>
	<g>
		<path fill="#1300A4" d="M300.4,626c-0.2-0.5-1.2-3.5-2.3-6.5s-1.9-6-1.9-6.6c0-0.6-0.9-1.9-1.9-2.8c-1-0.9-2.4-3-3.2-4.7
			c-0.9-2.1-2.4-3.5-5.1-4.9c-2-1.1-4.3-2-4.9-2c-0.6,0-3-1-5.3-2.2c-2.3-1.2-5.4-2.6-6.9-3.2c-1.5-0.5-3.2-1.4-3.8-1.8
			c-1.4-1.1-9.4-4.2-14.5-5.5c-9.9-2.7-14.2-4-15.6-4.8c-0.9-0.5-5.1-1.6-9.3-2.5c-4.3-0.9-9.3-2.1-11.2-2.6
			c-1.9-0.5-5.2-1.4-7.4-1.8c-2.1-0.5-6.1-1.3-8.9-1.9c-2.8-0.6-7.2-1.5-9.7-2.1c-2.6-0.6-5.4-1.4-6.2-1.8
			c-1.4-0.8-3.3-1.2-10.9-2.5c-4.1-0.8-20.7-6.1-30-9.8c-7.9-3.1-28.8-12.5-31.9-14.4c-0.6-0.5-2.9-1.7-5.1-2.8
			c-3.7-1.9-13.1-7.9-17.7-11.4c-6.8-4.9-17.5-16.3-19-20.1c-0.2-0.5-1-1.2-1.9-1.5c-0.8-0.3-1.5-0.9-1.5-1.5c0-1-2.1-4.8-6.8-12.1
			c-0.9-1.5-2.1-4.2-2.5-5.8c-0.4-1.6-1.1-3.9-1.5-5.2c-1.9-5.6-3.4-11.7-3.8-15.3c-0.2-2.2-0.7-4.5-1.1-5.2
			c-0.4-0.7-0.7-10.5-0.7-21.8c0-19.1,0.1-20.5,1.4-20.9c1.4-0.3,3.3-6.1,3.3-10.1c0-1,0.4-2.5,0.9-3.3c1.1-2.2,3-9.5,3-11.8
			c0-1,0.5-3,1.1-4.4c1.7-4,3.8-11.5,4-14.5c0.2-1.5,0.9-4.4,1.9-6.4c0.9-2.1,1.6-4.5,1.6-5.5c0-1,0.7-2.5,1.5-3.5
			c0.9-1,1.8-3.5,2.1-6.1c0.3-2.3,1.2-5.7,1.9-7.4c0.8-1.8,1.6-5.4,1.9-8.1c0.3-3,1-5.6,1.9-6.5c0.8-0.8,1.6-3.2,1.9-5.3
			c0.2-2.1,0.9-4.5,1.6-5.4c0.5-0.9,1.2-2.6,1.5-3.9c0.8-4.2,3.7-13.6,4.4-14.5c0.4-0.5,0.9-2.5,1.2-4.7c0.6-5.1,1.9-14,2.4-16.9
			c0.2-1.2,0.8-4.5,1.2-7.3c1.3-7.6,0.7-39.7-0.9-46.9c-0.5-1.9-1.1-5-1.5-6.9c-1.1-5.1-2.1-8.3-4-13.1c-1-2.3-1.9-5.5-2.1-7.1
			c-0.2-1.8-0.9-3.2-1.9-3.7c-0.8-0.4-1.5-1.4-1.5-2.2c0-0.8-0.4-1.7-0.8-1.9c-0.5-0.3-2-2.9-3.6-5.9c-1.5-3-4.2-7.5-6-10
			c-5.2-7.3-5.4-7.8-4.2-10.8c0.6-1.4,3.5-4.6,6.4-7.1c3-2.5,7.2-6.4,9.6-8.5c2.4-2.2,4.6-4.1,4.9-4.1c0.9,0,13.3-10.8,25.4-22.1
			c1.6-1.4,3-2.5,3.4-2.5c0.4,0,3.6-2.6,7.1-5.8c3.5-3.2,7.9-7.3,9.9-9c1.9-1.8,4.1-4.2,4.8-5.2c1.6-2.6,7.1-4.2,11.7-3.4
			c5.7,0.9,40.5,1.3,42.2,0.4c0.9-0.4,7-0.9,13.6-1.1c14.5-0.3,25.8-1.9,36.2-5c7.8-2.3,20.9-7.9,21.8-9.3c0.2-0.5,1.3-0.8,2.3-0.8
			c1,0,2.7-0.7,3.9-1.6c1.1-0.8,3.3-1.9,5-2.4c1.6-0.5,3.6-1.5,4.4-2.3s4-3.1,7-4.9c4.9-3.2,8-6,15.8-14.5c4.1-4.5,5.5-4,14.8,4.8
			c6.5,6.1,21.9,17.8,23.8,17.8c0.2,0,3.7,1.5,7.6,3.4c11.7,5.4,17.7,7.5,32.5,11.3c10,2.5,33.1,5,34.7,3.7c0.5-0.4,2.5-0.5,4.4-0.2
			c2.6,0.4,4.1,0.2,5.5-0.7c1.7-1.2,1.8-1.2,1.7,0.1c-0.1,1.2,0.6,1.3,5.4,1.1c3-0.2,6.5,0.1,7.7,0.6c1.7,0.6,2.9,0.6,4.5-0.1
			c1.5-0.6,2.8-0.6,4.4-0.1c1.6,0.5,2.5,0.5,3.1-0.1c0.5-0.5,3.4-0.9,6.5-1c3.1,0,6.5-0.3,7.5-0.6c1.6-0.5,2.7,0,5.8,2.5
			c2.2,1.6,5.1,3.4,6.5,3.8c1.4,0.5,4.4,2.7,6.6,4.8c2.3,2.2,5.2,4.5,6.6,5c1.5,0.7,2.5,1.6,2.5,2.5c0,1.5,9,9.6,20.5,18.5
			c13.8,10.7,34.7,32.1,34.7,35.5c0,1.8-0.9,3.3-6.6,10.6c-2.8,3.6-8.4,13.8-10.1,18.4c-0.6,1.5-2.3,5.6-3.8,9.2
			c-1.6,3.5-2.8,7.3-2.8,8.3c0,1-0.4,2.5-0.9,3.5c-0.5,0.9-1.2,3.9-1.5,6.7s-1.1,7.1-1.6,9.6c-1.8,8.4-0.9,44.7,1.2,48
			c0.4,0.6,0.9,4,1.2,7.7c0.7,7.9,1.4,10.4,4.6,17.2c1.3,2.8,2.4,6,2.4,6.9s0.5,2.4,1.2,3.2c0.6,0.8,1.2,2.8,1.2,4.5
			c0,1.6,0.4,3.7,0.9,4.5c0.5,0.8,1.2,3.4,1.5,5.5c1.1,6.8,8.2,31.7,9.6,36.3c1.2,3.3,2,6.7,2,7.5c0,0.8,0.5,2.4,1.2,3.6
			c1.1,2.2,2.9,8.8,4.2,15.8c0.3,1.8,0.9,3.6,1.2,4.2c0.4,0.6,0.9,2.7,1.2,4.6c0.2,1.9,1.1,6.1,1.8,9.5c1.2,5.2,1.3,10,1.1,35.7
			l-0.3,29.7l-3.2,7.3c-6.5,14.8-15,26.5-26.2,35.6c-3,2.4-6.1,5.5-6.8,7c-0.9,1.6-2.3,2.9-3.8,3.5c-1.4,0.5-4.4,2.2-6.6,3.9
			c-2.2,1.6-6.2,4.1-8.9,5.5c-2.7,1.3-5.5,2.7-6.1,3.1c-3.7,2.1-15.9,7.8-20.6,9.6c-3,1.2-7,2.7-8.9,3.5c-1.9,0.8-6.6,2.4-10.5,3.3
			c-3.9,1-9,2.5-11.4,3.3c-5.3,1.9-12.1,3.8-15.2,4.3c-1.3,0.2-3.7,1-5.2,1.6c-1.6,0.6-3.7,1.2-4.9,1.2c-1.1,0-4.1,0.5-6.8,1.2
			c-22.8,5.5-27.3,6.5-29.2,6.5c-1.2,0-5.6,1.2-9.9,2.8c-4.3,1.5-9.3,3.2-11.3,3.8c-1.9,0.7-4.7,1.8-6.2,2.5
			c-1.5,0.8-6.5,2.7-11.3,4.3c-4.7,1.6-9.4,3.5-10.5,4.2c-1.1,0.8-3.9,1.9-6.2,2.7c-2.3,0.8-5.3,2.2-6.5,3.4
			c-2.2,2-5.9,9.2-5.9,11.5c0,0.7-0.9,3-1.9,5.1c-4,7.8-4.2,8.1-6.7,8.1C301.8,626.9,300.6,626.4,300.4,626L300.4,626z M308.4,587.4
			c7.6-4.6,36.2-15.3,57.3-21.4c11.4-3.4,16.7-4.7,40.1-10.1c57-13.2,91.6-28.9,112.9-50.9c7.1-7.3,10-11.4,14.5-20.3
			c6.1-12.3,8.5-24.8,7.8-42.5c-0.8-21.3-4-35.2-20.5-89.4c-15.3-50.6-20-74.7-19.9-102.5c0.1-28.1,6.9-54.4,19.5-74.7
			c3.9-6.4,4.4-7.7,3.1-9.2c-0.9-1-21.6-19.1-39.1-34c-3.4-3-9.6-8.5-13.8-12.1c-4.3-3.7-8.2-6.8-8.9-6.8c-0.8-0.1-10.3,0-21.2,0.1
			c-43.8,0.3-76.9-5.6-104.7-18.8c-11.2-5.2-18.2-9.5-25.9-15.6c-2.7-2.2-5.6-4-6.3-4c-0.7,0-2.7,1.2-4.4,2.7
			c-8.9,7.5-25.5,16.9-38.4,21.7c-26.9,10.1-55,14.2-93.6,14c-21.4-0.2-22.4-0.1-24.1,1.4c-0.9,0.8-9.1,7.9-18,15.7
			c-28.4,24.5-41.5,36-42,36.8c-0.3,0.5,1.4,4.2,3.8,8.3c13.5,23.3,19.1,45.7,19.1,75.6c0.1,28.9-4.9,53.7-21.4,107.1
			c-13.9,45.2-18,63.1-18.8,83.8c-1.7,40.4,16.3,67.4,59.3,88.6c21.7,10.7,45,18.2,85.2,27.4c16.9,3.9,41.2,10.7,51.3,14.3
			c15.8,5.7,34.5,13.4,37.5,15.4c1.9,1.2,3.8,2.2,4.4,2.2C303.6,590,306,588.7,308.4,587.4L308.4,587.4z"/>
		<path fill="#1300A4" d="M83,475c0-0.6,0.6-1.5,1.4-1.8c1.1-0.5,1.6-0.3,2.3,1.1c0.8,1.7,0.7,1.8-1.4,1.8
			C83.7,476.1,83,475.7,83,475z"/>
		<path fill="#1300A4" d="M520,473.8c0.3-1.9,0.5-2.1,1.4-1.1c1.6,1.5,1.3,3.4-0.3,3.4C520,476.1,519.7,475.6,520,473.8L520,473.8z"
			/>
		<path fill="#1300A4" d="M116.9,461.6c-0.3-0.4-0.2-1.5,0.2-2.5l0.7-1.8l0.8,2.1c0.5,1.1,1.6,2.1,2.6,2.4c1.2,0.2,0.8,0.4-1.1,0.5
			C118.6,462.3,117.1,462,116.9,461.6z"/>
		<path fill="#1300A4" d="M88.6,459.7c-0.1-2.1,1-4.7,1.6-3.8c0.2,0.4,0,1.8-0.5,3C88.8,460.6,88.6,460.8,88.6,459.7z"/>
		<path fill="#1300A4" d="M325.9,457.2c1.2-0.2,3-0.2,4.3,0c1.2,0.2,0.2,0.3-2.2,0.3C325.7,457.5,324.7,457.4,325.9,457.2z"/>
		<path fill="#1300A4" d="M118.8,453.6c-0.1-0.8,0.2-2.5,0.7-3.8c0.4-1.3,1.2-4,1.7-6c0.5-2.1,1.2-3.7,1.5-3.7
			c0.2,0,0.5-0.5,0.5-0.9c0.1-0.5,0.6-2.4,1.2-4.1c2-5.1,1.5-1.1-0.6,5c-1.1,3.1-1.9,6.1-1.9,6.7s-0.5,2.1-1.1,3.4
			c-0.6,1.4-1.3,3-1.5,3.6C119,454.8,118.8,454.7,118.8,453.6z"/>
		<path fill="#1300A4" d="M207.8,453c-0.2-0.3,1.2-0.6,3.1-0.6s3.6,0.2,3.6,0.3C214.4,453.3,208.1,453.5,207.8,453L207.8,453z"/>
		<path fill="#1300A4" d="M355.3,453.1c-0.6-0.5-0.8-0.8-0.4-0.8c0.5,0,3.3-0.2,6.2-0.5c3-0.2,7-0.1,8.9,0.4l3.5,0.7l-5.1,0.2
			c-2.8,0.1-6.6,0.2-8.6,0.4C358,453.7,355.9,453.5,355.3,453.1L355.3,453.1z"/>
		<path fill="#1300A4" d="M394.2,453.1c-5.1-0.4-5.1-0.4-1.5-0.8c4.5-0.5,11.6-0.1,11.6,0.7C404.3,453.7,401.2,453.8,394.2,453.1z"
			/>
		<path fill="#1300A4" d="M226.3,452.6c0.7-0.2,1.9-0.2,2.7,0c0.7,0.2,0.1,0.4-1.4,0.4S225.6,452.8,226.3,452.6z"/>
		<path fill="#1300A4" d="M375.8,452.2c0.7-0.4,1.8-0.4,2.5,0c0.9,0.5,0.5,0.7-1.2,0.7C375.3,452.9,374.9,452.7,375.8,452.2z"/>
		<path fill="#1300A4" d="M129.5,418.7c0.2-1.3,0.7-2.5,1.2-2.8s0.5,0.3,0.2,1.8C130.1,420.8,129,421.5,129.5,418.7z"/>
		<path fill="#1300A4" d="M131.2,413c0-1.1,0.4-2,0.8-2c0.5,0,0.8,0.7,0.8,1.5c0,0.8-0.3,1.8-0.8,2
			C131.5,414.8,131.2,414.1,131.2,413z"/>
		<path fill="#1300A4" d="M132.8,408.1c0.3-1.2,1-2.9,1.5-3.7c0.7-1.1,0.8-1.2,0.9-0.2c0,2.8-1,6-2,6
			C132.4,410.3,132.3,409.7,132.8,408.1z"/>
		<path fill="#1300A4" d="M107.9,398.4c0-1.6,0.5-2.6,1.2-2.9c1-0.4,1.1-0.3,0.5,0.5c-0.5,0.6-0.7,1.2-0.5,1.5
			c0.2,0.2,0.1,1.1-0.4,1.8C108,400.5,107.9,400.4,107.9,398.4L107.9,398.4z"/>
		<path fill="#1300A4" d="M142.1,378.6c0-0.6,0.4-1.4,0.8-1.6c0.5-0.2,0.8,0.1,0.8,0.7s-0.3,1.4-0.8,1.6
			C142.5,379.5,142.1,379.2,142.1,378.6z"/>
		<path fill="#1300A4" d="M151.1,349.8c0.8-4,1.8-5.5,1.9-2.6c0,1.2-0.5,3-1.2,3.8C150.6,352.4,150.6,352.4,151.1,349.8z"/>
		<path fill="#1300A4" d="M159.2,323.7c0-1.3,1.9-6.6,2.6-7.2c0.8-0.8,0.7,0.8-0.3,4.7C160.7,324.3,159.2,325.9,159.2,323.7
			L159.2,323.7z"/>
		<path fill="#1300A4" d="M171,286.9c0-0.5,0.3-1.7,0.7-2.5c0.6-1.4,0.7-1.3,0.7,0.5c0.1,1.1-0.2,2.3-0.7,2.5
			C171.3,287.7,170.9,287.5,171,286.9z"/>
		<path fill="#1300A4" d="M428.6,268.9c-0.1-0.9-0.5-2.5-1-3.5c-1-2.2-4-3.1-22.9-6.7c-6.8-1.4-12.6-2.5-12.9-2.8
			c-1.6-0.9-23.5-5.1-32.8-6.1c-17.4-2-30.2-0.7-39.5,4c-4.7,2.3-11,7.9-13.6,12c-1.1,1.5-2.3,2.8-2.6,2.8s-1.6-1.4-2.7-3
			c-2.8-4.4-8.7-9.7-13.2-11.9c-7.2-3.4-12.5-4.5-23-4.6c-14.8-0.2-28.7,1.8-50.2,6.8c-4.7,1.1-11.9,2.7-15.9,3.4
			c-15.2,3.1-18.1,3.8-18.7,4.7c-0.5,0.7-0.9,0.6-2.2-0.5c-1.9-1.8-1.6-2.4,1.6-3c3.6-0.7,18.8-3.9,29-6.3
			c28.4-6.4,40.9-8.3,55.2-8.3c10.2,0,12.3,0.2,16.7,1.8c8.9,3.2,11.9,4.9,17.7,10.3l5.7,5.3l5.4-5.1c5.7-5.4,12.8-9.3,21-11.3
			c6.8-1.7,25.6-1.3,37,0.8c5.1,1,9.7,1.8,10.1,1.9c0.5,0.2,2.2,0.5,3.9,0.8c5.1,0.9,13.4,2.7,26.1,5.5c14.6,3.2,17.4,3.8,24.9,5
			l5.8,1l-4,0.7l-4,0.6l-0.3,3.6C428.8,269,428.6,269.9,428.6,268.9L428.6,268.9z"/>
	</g>
</g>
<g>
	<path fill="#FBDC08" d="M285.4,493.5c-9.8-2.6-15.6-6-22.3-12.9l-6.2-6.2l-85.1-0.2c-60.1-0.2-85.5-0.5-86.3-1.1
		c-2.2-1.7-2-2.9,10.2-40.9c4.2-13,9-28.5,12.5-40c1.1-3.4,3.4-10.8,5.3-16.7c1.9-5.7,3.7-11.6,4.2-13.2
		c0.6-2.5,15.6-50.2,18.3-58.1c2.5-7.4,9.8-31,11.9-37.3c1.2-3.7,2.6-7.1,3.4-7.4c1.7-0.9,24.5-2.8,26-2.2c2,0.8,1.4,5.1-1.9,15.3
		c-4.6,14.6-13.3,42.5-19.5,62.6c-6.7,22.3-12.9,41.5-14.6,47.3c-0.8,2.3-3.6,11.5-6.4,20.1c-2.6,8.7-7.7,24.9-11.3,36.3l-6.4,20.3
		l3.3-0.3c1.9-0.2,7.4-0.8,12.5-1.2c5.1-0.5,13.3-1.4,18.3-2c34.1-4.3,48.8-5.4,75.9-5.4c22.2,0,28.4,0.2,35.6,1.4
		c12.1,1.9,24.6,4.8,32.7,7.6l6.4,2.5l9.8-3.1c9.1-2.9,16.9-4.6,32.7-7.1c4.3-0.8,14.3-0.9,33-0.9c28.2,0,36.4,0.8,83.7,6.2
		c17.2,2,25.6,2.3,25.6,1.4c0-0.5-0.9-3.9-2.3-7.6c-1.2-3.9-4.3-13.3-6.7-21.2c-4.3-14.1-7.9-25.7-16-51.1c-5-16-5.3-16.6-10.5-34.1
		c-2.3-7.9-5.9-19.1-7.7-24.8c-1.9-5.7-4.5-14.1-5.9-18.6c-1.4-4.5-4.3-14.1-6.7-21.5c-4.5-14.1-5.4-20.8-3.1-21.5
		c2.2-0.8,25.1,1.4,26,2.5c0.5,0.6,2.8,7.1,5.1,14.9c2.3,7.6,6.8,21.8,10.1,31.6c6.4,19.8,17.5,55,20.1,64
		c1.5,5.4,4.6,14.9,21.8,69.4c7.9,25.1,9.1,29.6,8.5,32.4l-0.6,1.7h-85.7h-85.7l-5.9,6.2c-6,6.4-10.1,9-20.3,12.5
		C315,495.2,293.3,495.6,285.4,493.5L285.4,493.5z"/>
</g>
<g>
	<g id="XMLID_1_">
		<g>
			<path fill="#E30507" d="M297.9,142.5c0.9,1.4,3.1,0.5,3.4-1.4c0.2-1.1-0.2-1.7-0.9-1.7C298.9,139.4,297.2,141.5,297.9,142.5z
				 M319.6,133.2c-1.5,0-3.6,3.1-3.6,5.3c0,4.5,3.3,7.6,4.2,3.9c0.3-0.9,0.5-3.4,0.5-5.4C320.7,134.2,320.4,133.2,319.6,133.2z
				 M289,132.5c0,2-7.4,0.8-8.1,1.1c-1.5,0.6-2.5,5.4-1.4,7.4c1.1,2,2.6,2,5.1,0.5c1.1-0.6,2.8-1.1,3.7-0.9c1.2,0.2,2.6-0.5,4.2-1.7
				c1.2-1.2,3.6-2.5,5.1-3.1c2.9-0.9,4.3-2,3.4-2.9c-0.3-0.3-1.7-0.2-3.1,0.3c-2.8,0.9-4.8,0-5.1-1.5c-0.2-0.9,0.2-2,1.4-3.1
				c2-1.7,9.1-1.7,11.6,0c1.9,1.2,2,1.2,3.7-0.9c5.1-6.5,7.4-7.4,7.9-2.9c0.3,3.3,2.8,5.3,5.1,4.3c1.1-0.6,2.3-0.6,3.6,0
				c0.6,0.3,1.7,0.5,2.8,0.8l-0.5,2.9c-0.6,0-2.3,8.5-2.3,12.5c0,3.3-1.5,4.8-4,4c-1.1-0.3-3.4-0.5-5.4-0.5
				c-5.6,0.2-6.8-1.5-6.8-8.8c0-3.1-0.3-5.9-0.6-6.2c-0.6-0.5-1.7,6.7-1.7,11.6v2.5h-6.7c-5.3,0.2-6.8-0.2-8.4-1.4
				c-2-1.7-3.6-2-3.6-0.8c0,1.2-4.3,3.1-7.3,3.1c-2,0-3.6-0.8-5.4-2.3c-1.4-1.2-2.8-2.3-3.1-2.3c-0.3,0-0.5,1.2-0.6,2.5
				c-0.3,2.3-0.5,2.5-3.4,2.5c-1.7,0.2-3.9,0.5-5.1,0.9c-2.6,1.1-5.1,0-7-3.1c-2-3.4-2.3-16.4-0.3-17.2c2.6-0.9,4,0.9,4.6,6.2
				c0.6,5.4,1.9,7.9,3.6,7c0.8-0.5,0.8-2.2,0.5-6.7c-0.5-4.8-0.2-6.2,0.6-7c2.3-2,4.5-0.5,5.4,4.2l0.5,2.3l1.5-2.9c2-4,5-6,8.5-6
				c3.3,0,6.4,2.3,6.8,4.8C289,132,289,132.2,289,132.5z"/>
			<path fill="#FFFFFF" d="M414.3,278.6c1.1,0.5-0.9,3.6-5.9,9.6l-2.2,2.5l-30.1,0.3c-16.6,0.3-30.5,0.6-31.1,0.9
				c-2.5,1.4-20.6,18.4-20.6,19.4c0,0.8,5.9,0.9,27.7,0.9c3.9,0,7.4,0,10.4,0c19.7,0,20.3,0.6,19.1,3.7c-0.3,0.9-1.4,2-2.5,2.3
				c-0.9,0.5-16.6,0.6-34.7,0.5c-23.6-0.2-33.6,0-35.3,0.6c-3.1,1.2-20,20.3-19.4,21.8c0.5,0.9,5.3,1.2,34.6,1.2c1.5,0,3.1,0,4.6,0
				c3.7,0,7,0,9.8,0c17.5,0,19.8,0.3,20.1,1.2c0.5,1.5-1.2,3.3-31.1,30.8c-11.5,10.5-27.1,25.1-34.7,32.2c-7.6,7-14.7,13.5-16,14.1
				c-1.4,1.1-3.4,1.4-8.7,1.4c-0.3,0-0.6,0-1.1,0c-4.3,0-8.2-0.3-8.7-0.6c-1.2-0.8,2.5-4.3,21.5-21.4c7.6-6.7,14.1-12.5,14.3-13
				c0.3-0.5,0-1.1-0.6-1.4c-1.7-1.1-62.4-0.9-64.5,0.2c-0.9,0.6-4,3.1-7.1,5.7c-2.9,2.6-8.4,7.1-11.6,10.1
				c-3.6,2.9-9.8,8.4-13.9,12.1c-4.3,3.7-8.5,7.1-9.5,7.6c-0.8,0.5-3.4,0.8-6,0.9c-2.8,0.2-5.6,0-6-0.5c-1.2-1.2-3.1,0.5,23.1-20.8
				c12.4-10.1,27.4-22.2,30.2-24.5c12.7-10.1,30.7-24.9,30.7-25.6c0-0.5-0.8-0.9-1.7-1.2c-0.9-0.3-19.2-0.5-40.4-0.3
				c-44.3,0.2-43.1,0.3-43.1-0.8c0-0.8,0.3-1.4,10.8-10.8c3.3-2.9,7.4-6.7,12.9-11.5c10.7-9.6,23.6-21.4,28.7-26
				c22.8-20.9,23.9-21.8,27.6-22.5c4.3-0.6,7.7,0.2,7.4,1.5c-0.2,0.6-7.3,7.6-15.8,15.5c-36.4,34.1-48.5,45.7-48.2,46.5
				c0.2,0.5,23.7,0.9,43.7,1.1c14.1,0.2,26.5,0,27.9-0.3c1.7-0.5,7.7-5.6,23.9-20.6c3.4-3.1,12.7-11.6,20.6-18.6
				c7.9-7,17.2-15.5,20.8-18.7l6.7-6l33.8-0.2C409.5,277.8,412.6,278,414.3,278.6z M323.7,365.2c7.6-7.7,12.5-13.5,12.4-14.3
				c-0.3-1.1-3.6-1.2-33.9-1.1l-33.6,0.3l-2.5,2.2c-8.2,7-25.9,23.9-25.9,24.6c0,0.6,0.8,1.1,1.9,1.2c0.9,0.2,9.9,0.2,19.8,0
				c9.9,0,25.3-0.2,33.8-0.2h15.5L323.7,365.2z"/>
			<path fill="#FFFFFF" d="M368,384.9c0,2.2-7.1,9.5-12.5,13c-6,4-13.8,7-22.2,8.1c-7.4,0.9-14.7,0.9-15.3,0
				c-0.5-0.8,0.3-1.7,11.6-11.8c13.6-11.9,11.5-10.8,22.3-11.2C363.5,382.7,368,383.3,368,384.9z"/>
			<path fill="#FFFFFF" d="M322,335.9c1.2-1.1,4.8-1.2,36.4-1.2c30.8,0,35.3-0.2,36.3-1.2c1.1-0.9,1.2-3.3,1.2-11.5
				c0-5.6-0.3-10.7-0.6-11c-1.2-1.9-9.3-2.6-27.7-2.6c-1.7,0-3.4,0-4.8,0c-9.5,0-14.3-0.3-14.6-0.8c-0.3-0.5-0.5-0.9-0.3-1.1
				c0.2,0,16.4-0.5,36.3-0.6c19.8-0.3,36.3-0.8,36.6-1.1c0.3-0.3,0.8-6.5,0.9-13.8c0.3-7.1,0.5-13.9,0.6-15.2l0.3-2l-39.2-0.2
				c-21.5-0.2-40.1,0-41.5,0.2c-2.5,0.5-4,1.7-52.5,45.7c-8.5,7.7-16.7,15.2-18.4,16.6l-2.9,2.5h-15.2c-4.3,0-8.2-0.2-11.2-0.3
				c-2.9-0.2-4.8-0.3-5.3-0.5c-0.9-0.6,0.3-2.2,6.2-7.6c4-3.7,11.3-10.7,16.3-15.3c5-4.6,14.4-13.8,21.4-20.1
				c18.3-17.2,19.2-18.3,18.4-19.1c-0.5-0.3-6.2-0.8-13-1.1c-6.8-0.2-16.4-0.6-21.2-0.9c-13.6-0.8-14.4-0.5-21.8,6.5
				c-3.6,3.3-9.8,9-13.8,12.5c-4,3.6-11.8,10.8-17.5,16c-5.4,5.1-18.6,17-28.8,26.3c-10.4,9.3-18.7,17-18.7,17.5
				c0,0.3,0.5,0.9,1.2,1.5c0.8,0.8,1.2,2.5,1.2,6c0,8.7-3.1,7.9,33,7.9c18.6,0,31.5,0.3,31.8,0.8c0.5,0.8-4,4.5-22.5,19.5
				c-5.4,4.5-13.9,11.3-18.6,15c-4.6,3.9-11.9,9.6-16,12.9c-7.9,6.4-10.5,9-9.9,9.8c0.3,0.3,2.2,0.5,4.3,0.6c2,0,7.4,0,13.9-0.2
				c12.7-0.3,29.3-0.9,31.1-1.2c2-0.3,5.1-2.6,12.4-9.6c5.4-5.1,10.5-9.5,11.3-9.9c1.7-0.9,23.7-1.4,27.9-0.6
				c1.5,0.3,2.8,0.8,2.8,1.1c0,0.5-3.7,3.9-8.2,7.9c-10.2,9-11.9,10.7-11.5,11.6c0.3,0.5,7.3,0.6,18.6,0.6c0.9,0,1.7,0,2.6,0
				c8.8-0.2,15.6,0,16,0.2c0.3,0.3,0.6,3.6,0.8,7.3c0.2,4.6,0.6,7,1.4,7.4c2,1.2,48.7,0.9,55.3-0.5c15.2-2.9,30.2-11.5,51-29
				c21.5-18.1,26.8-22.6,27.3-23.4c0.2-0.5,4-3.6,8.2-7c4.3-3.4,8.4-7,8.8-7.9c1.5-2.8,1.2-19.5-0.3-21.1c-2-2-7.3-1.4-7.3,0.8
				c0,1.7-49.4,44.9-61.4,53.6c-6.8,5-17.7,11-23.1,12.7c-4.5,1.4-7.3,1.7-27.3,2c-25.4,0.5-25.1,0.5-18.9-5.6l3.6-3.3l14.6-0.6
				c28.2-1.1,36.6-4,55.3-19.2c10.7-8.7,31-28,31-29.4c0-1.2-0.9-1.4-8.5-1.4H387l-8.2,8.5l-8.4,8.5h-8.2c-7.7,0-8.4-0.2-8.4-1.5
				c0-0.8,1.2-2.6,2.9-4c1.5-1.4,6.2-5.7,10.5-9.8l7.6-7.1l-0.2-7c-0.2-3.9-0.3-7.6-0.6-8.1c-0.9-2.5-4.3-2.8-27.6-2.8
				c-2.5,0-4.8,0-7,0c-3.7,0-7.1-0.2-9.8-0.2c-4.3-0.2-7.3-0.3-7.6-0.5C320.9,337.5,320.9,337,322,335.9z M483.2,449.3
				c0.9,3.6,1.7,7,1.4,7.6c-0.3,0.8-1.5,0.9-5.7,0.6c-12.9-1.2-42.8-4.3-55.2-5.7c-33-3.9-64.9-3.9-85.7,0
				c-10.7,2-25.3,5.7-30.1,7.7c-4.5,2-7.4,1.9-12.1-0.2c-5.3-2.3-22.9-6.7-34.7-8.4c-25.4-3.7-51-2.9-104.3,3.4
				c-17.8,2.2-36.4,3.6-37.2,2.8c-0.6-0.8,1.2-7.6,6.2-23.2c1.1-3.1,3.7-11.6,5.9-18.6c2.2-7,5-16,6.2-19.8c1.2-3.9,5.6-18,9.8-31.5
				c8.2-26.3,19.2-62.6,26.8-86.8c6-19.5,5.6-18.4,9-19.1c1.5-0.3,5.9-1.2,9.5-2c46.9-10.4,48.8-10.8,64.3-11.3
				c21.5-0.6,32.7,3.6,41.1,15.3c1.9,2.6,3.6,4.6,3.9,4.6c0.3,0,1.9-1.5,3.1-3.6c8.1-11.6,19.2-16.6,37.6-16.7
				c12.1,0,30.8,2.8,45.9,6.7c2.5,0.6,11.3,2.5,19.5,4.3c8.4,1.7,15.3,3.4,15.6,3.9c0.3,0.3,3.3,9.1,6.5,19.5
				c3.3,10.4,8.2,26.8,11.3,36.4c6.7,20.9,10.1,32.2,18.9,60.9c3.7,11.9,8.1,26,9.8,31.5C479.7,437.5,481.5,443.3,483.2,449.3z"/>
			<path fill="#E30507" d="M324.6,342.4c-29.3,0-34.2-0.2-34.6-1.2c-0.6-1.5,16.3-20.8,19.4-21.8c1.9-0.6,11.9-0.8,35.3-0.6
				c18.1,0.2,33.8-0.2,34.7-0.5c0.9-0.3,2.2-1.4,2.5-2.3c1.2-3.1,0.6-3.6-19.1-3.7v-3.9c1.5,0,3.1,0,4.8,0c18.4,0,26.5,0.8,27.7,2.6
				c0.3,0.5,0.6,5.4,0.6,11c0,8.2-0.2,10.5-1.2,11.5c-1.1,1.1-5.4,1.2-36.3,1.2c-31.6,0-35.3,0.2-36.4,1.2c-1.1,1.1-1.1,1.5-0.3,2
				c0.3,0.2,3.1,0.3,7.6,0.5v4C327.7,342.4,326.1,342.4,324.6,342.4z"/>
			<path fill="#E30507" d="M213.7,524.5c3.3,0,5.6,1.5,5.6,3.6c0,1.5-2.3,3.6-4.3,3.6c-2.8,0-4.3,2.8-4.3,7.7c0,2.5-0.2,5-0.5,5.7
				c-0.6,1.5-4.8,1.5-7.1,0c-1.4-1.1-1.7-2-2-6l-0.2-4.8l-0.3-4.3c0.5,0,0.6-0.9,0.6-2.9c0-4.3,1.5-5.3,5.6-3.6
				C208.9,524,211.8,524.5,213.7,524.5z"/>
			<path fill="#E30507" d="M200.8,529.7l0.3,4.3l-2.5,0.3c-1.1,0.2-3.4-0.3-5.9-0.8c-0.8-0.2-1.4-0.3-2-0.6c-6.2-2-8.2-1.2-5.3,1.5
				c1.4,1.2,2.2,1.5,4.8,1.2c0.9-0.2,1.7-0.2,2.3-0.2c1.2,0.2,2.2,0.5,3.4,1.2c1.4,0.9,2.5,2,2.5,2.3c0,1.4-3.6,3.1-6.2,3.1
				c-10.2,0-18.6-7.7-18.6-17c0-5.4,2.2-7.9,7.6-8.5c7.3-0.6,14.7,3.6,17.7,9.9C199.6,528.8,200.3,529.7,200.8,529.7z M186.4,526.8
				c2.8,0.5,3.6,0.3,3.6-1.2c0-1.4-3.3-3.1-5.1-2.3C182.7,524,183.8,526.3,186.4,526.8z"/>
			<path fill="#E30507" d="M345.8,133.6c0.3,0.2,0.6,0.2,1.1,0c4.5-1.9,5.6-2,8.4-1.2c5.1,1.4,5.9,2.9,5.4,9.9
				c-0.8,9-1.7,11.8-3.9,11.8c-0.9,0-2-0.2-2.3-0.6c-0.3-0.2-1.5-0.5-3.1-0.5l-0.2-4.5c0.6,0,1.2-0.3,2-1.1c0.8-0.9,0.8-1.5,0.2-2.2
				s-1.5-0.6-2.3-0.2l-0.8-4.5c0.3,0,0.6-0.2,0.9-0.2c1.9-0.3,2.8-0.8,2.8-1.5c0-0.9-0.6-1.1-2.8-0.6c-2.5,0.5-3.1,0.3-4.6-1.5
				l-1.7-2.2L345.8,133.6z"/>
			<path fill="#E30507" d="M339,338.5v3.9c-2.8,0-6,0-9.8,0v-4C332,338.4,335.3,338.5,339,338.5z"/>
			<path fill="#E30507" d="M425.1,169.7c0.3,0.2,0.6,0.5,0.9,0.5l-1.1,2.9c-0.3,0-1.1,0.3-2.2,0.8c-3.6,1.5-4.6,1.5-8.1-0.2
				c-1.9-0.9-3.1-2.2-3.9-4.3c-1.1-2.8-2.5-3.9-2.5-2.2c0,0.5-0.6,1.1-1.5,1.5c-1.4,0.8-2.2,0.6-4.2-0.8c-1.4-0.9-3.6-1.5-4.6-1.5
				c-2.6,0-5.1-2.5-5.1-5.1v-2.2l0.3-2.3c0.3,0.2,1.2-0.3,2.2-0.9c0.9-0.8,3.3-1.2,5.9-1.2c4,0,5.9-1.2,4-2.3
				c-0.6-0.5-2.2-0.8-3.6-0.8c-3.3,0-4-1.9-1.9-4c1.4-1.4,2.2-1.4,5.1-1.1c5.1,0.8,7.6,2.9,7.6,6.7c0,3.4,0.9,3.9,3.9,1.5
				c1.1-0.8,2.9-1.5,4.3-1.5c4.8,0,9.9,5.4,8.7,8.8c0,0.2-0.2,0.2-0.2,0.3c-0.8,1.4-3.1,1.1-5.4-0.9c-1.7-1.5-2.5-1.7-3.6-1.2
				c-2.5,1.2-3.3,2.9-2.9,5.6c0.2,2.3,0.5,2.5,3.3,2.5C422,168.6,424.2,169,425.1,169.7z M402.8,160.7c0-1.2-2-1.5-2.8-0.3
				c-0.2,0.5-0.3,1.1,0,1.5C400.7,162.8,402.8,161.9,402.8,160.7z"/>
			<path fill="#E30507" d="M226.7,300.3c-5.1,4.6-18,16.3-28.7,26c-5.4,4.8-9.6,8.7-12.9,11.5l-2.8-2.6
				c10.2-9.3,23.4-21.2,28.8-26.3c5.6-5.1,13.5-12.2,17.5-16s10.2-9.3,13.8-12.5c7.4-7,8.4-7.1,21.8-6.5c4.8,0.2,14.4,0.6,21.2,0.9
				c6.8,0.3,12.7,0.8,13,1.1c0.8,0.8-0.2,1.7-18.4,19.1c-6.8,6.4-16.4,15.5-21.4,20.1c-5,4.6-12.2,11.6-16.3,15.3
				c-5.9,5.4-7.1,7-6.2,7.6c0.3,0.2,2.3,0.5,5.3,0.5v4c-20-0.2-43.5-0.6-43.7-1.1c-0.2-0.8,11.8-12.4,48.2-46.5
				c8.5-7.9,15.5-14.9,15.8-15.5c0.3-1.4-3.3-2.2-7.4-1.5C250.5,278.3,249.4,279.2,226.7,300.3z"/>
			<path fill="#E30507" d="M469.8,190c2.8,0,5.6,0,6,0.2c2.2,0.2,1.2-1.7-1.4-2.3c-3.7-0.9-5.1-3.1-3.1-4.6
				c4.3-3.1,11.5,0.8,12.7,6.8l0.6,3.3l2.9-4.5c3.4-4.8,5.3-6,7.1-4c1.2,1.1,1.1,1.4,0,3.9c-0.6,1.4-3.9,6.7-7.1,11.6
				c-6.4,9.6-7.9,10.7-10.2,7c-0.6-1.1-2-2-2.8-2c-0.9,0-2.2-0.8-3.1-1.5c-0.9-0.9-2.8-2-4.3-2.5c-1.9-0.6-2.9-1.4-3.9-3.4
				c-1.1-2.2-1.7-2.6-2.9-2.3c-0.9,0.3-2.5-0.2-3.4-0.9l-1.7-1.5l2.9-5.4c2.3-4.3,2.8-5.7,2-6.4c-1.2-1.4-2.8,0-5.6,5.1
				c-1.7,3.3-2.8,4.2-4.2,4.2c-2.8,0-3.7-1.7-2.8-4.3c0.5-1.2,0.6-2.3,0.6-2.5c-0.2-0.2-1.7,0.3-3.3,0.9c-2.5,1.1-3.6,1.1-6,0.5
				c-2.9-0.9-4.3-2.5-5.6-7l-0.8-2.5l-2.2,2c-1.9,1.5-2.5,1.9-3.7,1.2c-1.5-0.8-1.7-1.5-1.4-4.5c0-0.9,0-1.4-0.5-1.4l1.1-2.9
				c0.8,0.5,1.2,0.2,2-0.9c0.6-0.8,1.7-2.8,2.2-4.3c0.3-0.9,0.6-1.7,0.9-2.3c1.7-3.3,4.2-4.2,5.9-2c0.8,0.9,0.9,1.9,0.2,3.9
				c-0.9,3.1-0.2,3.6,2.5,1.5c1.9-1.4,6.8-1.5,9.1-0.3c1.7,0.9,3.7,5.1,3.7,8.1c0,2.5,0.3,2.5,2.9-0.5l2.2-2.5l2.2,1.7
				c1.2,0.9,3.3,2,4.5,2.2c1.7,0.5,2.8,1.2,3.6,2.8c0.9,2,0.9,2.8-0.6,6.2c-1.1,2.2-2,4.3-2.2,5C464.7,189.6,466,189.8,469.8,190z
				 M473,194.8c-1.7-0.6-3.6,0.2-3.6,1.5c0,1.4,2.6,1.5,3.9,0C474.1,195.4,474,195.2,473,194.8z M443.9,178c3.1-3.3,2.8-7.3-0.5-6.7
				c-2.2,0.5-4.6,5.7-3.4,7.1C441.4,180.2,442,180,443.9,178z"/>
			<path fill="#E30507" d="M383.5,273.6l39.2,0.2l-0.3,2c-0.2,1.1-0.5,7.9-0.6,15.2c-0.2,7.3-0.6,13.5-0.9,13.8
				c-0.3,0.3-16.9,0.8-36.6,1.1c-19.8,0.2-36.1,0.6-36.3,0.6c-0.2,0.2,0,0.6,0.3,1.1c0.3,0.5,5.1,0.8,14.6,0.8v3.9
				c-2.9,0-6.5,0-10.4,0c-21.8,0-27.7-0.2-27.7-0.9c0-0.9,18.1-18,20.6-19.4c0.5-0.3,14.4-0.6,31.1-0.9l30.1-0.3l2.2-2.5
				c5-6.2,6.8-9.3,5.9-9.6c-1.7-0.6-4.8-0.8-39.4-0.6l-33.8,0.2l-6.7,6c-3.6,3.3-13,11.8-20.8,18.7c-7.7,7-17.2,15.5-20.6,18.6
				c-16.1,14.9-22.2,20.1-23.9,20.6c-1.5,0.3-13.9,0.3-28.2,0.3v-4c2.9,0.2,6.8,0.3,11.2,0.3h15.2l2.9-2.5
				c1.7-1.4,9.9-8.8,18.4-16.6c48.5-43.8,50-45.2,52.5-45.7C343.3,273.6,361.9,273.5,383.5,273.6z"/>
			<path fill="#E30507" d="M351.4,148.7l0.2,4.5c-0.2,0-0.5,0-0.6,0c-5.9,0.2-9-4-6.5-9.1c1.2-2.2,1.9-2.6,6-3.4l0.8,4.5
				c-0.5,0.5-0.9,1.1-0.9,1.9C350.2,148.1,350.6,148.7,351.4,148.7z"/>
			<path fill="#E30507" d="M254.9,145c1.2,5.4,0.5,6.8-3.9,6.8c-1.5,0-3.1,0.5-3.4,0.8c-0.9,1.5-4.6,0.8-6.7-1.2l-1.9-2l-4.5-0.6
				c1.1-0.2,2-0.2,2.5-0.2c1.5,0,1.7-0.3,1.4-1.7c-0.6-2.3-1.1-4.3-1.1-6.4c0-2,0.3-3.9,0.9-5.3c1.1-2.3,1.9-2.8,4.3-3.3
				c3.1-0.5,3.1-0.5,2.8-4c0-2.6,0.2-3.7,1.2-4.5c2.6-1.7,4,0.3,5.7,9C253.2,137,254.4,142.5,254.9,145z M247.7,143.9
				c0.2-1.2-0.3-3.1-1.1-4c-1.1-1.5-1.5-1.9-2.3-1.1c-1.4,1.1-1.4,2.9-0.3,5.7C245.1,147.2,247.4,146.9,247.7,143.9z"/>
			<path fill="#E30507" d="M239.1,149.4l-0.5,2.6c-0.5,2.3-0.6,2.6-5.4,3.7c-9,2.2-9.8,2.3-10.8,1.1c-0.8-0.9-6.2-22.6-6.2-25.4
				c0-1.4,2.3-2.3,9.8-3.7c4-0.8,5-0.8,6,0c2.3,2,1.1,4-3.1,5.6c-2,0.8-4.2,1.7-4.6,2.2c-1.5,1.4,1.2,2.6,5.6,2.6s4.3,0,4.3,2.3
				c0,2-0.5,2.3-3.6,3.3c-3.7,1.1-4.8,2.3-4,4.5c0.5,1.1,1.2,1.2,4.5,0.8c1.1-0.2,2.3-0.3,3.3-0.5L239.1,149.4z"/>
			<path fill="#E30507" d="M344.9,134.6l-3.7,7.6c-3.7,7.6-3.9,7.7-6.4,7.7H332l-0.9-5.1c-0.5-2.8-1.2-6.7-1.4-8.7
				c-0.3-2.2-0.9-3.7-1.2-3.7l0.5-2.9c0.8,0.2,1.5,0.2,2.2,0.2h3.1l0.6,4c0.5,2.2,1.1,4,1.4,4s1.4-1.5,2.3-3.3
				c1.4-2.5,2.3-3.4,4-3.6c1.7-0.2,2.3,0,2.6,1.4c0.2,0.6,0.3,0.9,0.6,1.1L344.9,134.6z"/>
			<path d="M503.9,415.2c9,27.4,18.3,58.6,18,59.3c-0.5,0.9-14.3,1.1-87.4,1.1h-87.1l-5.7,5.6c-6.4,6.2-13.6,10.4-22.8,13
				c-7.1,2-21.4,2.6-28.4,1.2c-12.2-2.6-20-6.7-27.9-14.1l-5.7-5.6h-87.1c-73.3,0-87.1-0.2-87.5-1.1c-0.3-0.5,6.2-21.7,14.1-46.9
				c7.9-25.4,19.1-60.3,24.5-77.8c5.4-17.5,12.2-39,15-48c11.6-36.9,13.6-43.1,14.6-43.4c0.6-0.2,6.7-0.8,13.8-1.5
				c14.4-1.2,22-2.6,44.6-7.7c20.9-4.6,30.5-6.5,38.4-7.3c7-0.8,22.5-0.8,27.6,0.2c8.4,1.2,16.6,5.4,22.6,11.5l4.8,4.8l5-4.8
				c5.1-5,11.3-8.4,18.3-10.7c5.3-1.5,23.2-2.2,32.2-1.1c7.3,0.9,33.2,6,46.5,9.3c14.4,3.4,21.4,4.5,35.9,5.9
				c7.4,0.6,13.8,1.5,14.4,2c0.5,0.5,2.8,7.1,5.3,14.9c2.5,7.7,9.9,31.9,16.7,53.6c6.8,21.7,15.5,49.1,19.1,60.9
				C499.1,399.7,502.9,412.1,503.9,415.2z M516.9,470.9c0.5-1.5,1.4,1.5-21.5-71.1c-3.7-11.6-7.4-23.6-8.4-26.3
				c-1.7-5.6-5.9-19.2-19.8-63.2c-5.1-16.3-10.5-33.5-12.1-38.6c-1.5-5-3.3-9.3-3.7-9.8c-1.1-0.9-20.6-2.6-21.7-2
				c-1.2,0.8-0.6,3.4,3.6,16.7c2.3,7.4,5.3,17,6.7,21.5c1.4,4.5,4,12.9,5.9,18.6c1.9,5.7,5.3,16.9,7.6,24.8
				c5.3,17.5,5.6,18.3,10.5,34.1c7.9,25.3,11.5,37,16,51.1c2.5,7.9,5.6,17.7,6.8,21.7c1.2,4,2.3,8.5,2.5,10.1l0.2,2.8l-7-0.2
				c-3.7-0.2-14.6-1.1-24-2.2c-48.2-5.4-55.6-6-81-6c-16.7,0-26.3,0.3-30.7,0.9c-16.1,2.6-24.2,4.5-33.8,7.6
				c-5.7,2-11.2,3.4-12.1,3.3c-0.9-0.2-4.5-1.5-8.2-2.8c-7.9-2.8-20.3-5.7-32.5-7.7c-7.3-1.2-13.5-1.4-33.3-1.4
				c-24.8,0.2-38.1,1.1-80.3,6c-16.4,2-31.5,2.9-32.2,2.2c-0.5-0.5,1.7-8.7,6.2-22.6c3.9-12.1,9.1-29.1,11.8-38
				c2.6-8.8,5.4-17.8,6.2-20.1c1.9-5.7,7.9-24.9,14.7-47.3c6.2-20.3,14.9-48,19.5-62.7c1.7-5.4,2.8-9.9,2.3-10.2
				c-0.8-0.8-19.1,0.6-21.5,1.7c-1.2,0.5-2.2,2.3-3.7,7.6c-2,6.5-9.5,30.1-11.9,37.3c-1.7,5.3-17,54.4-19.2,61.2
				c-0.9,3.1-3.6,11.6-5.9,18.6c-5.1,16.3-7.4,23.7-9.8,31c-2.8,9-11.2,35-13.9,44.2c-2,5.9-2.3,8.4-1.9,9
				c0.8,0.9,17.2,1.1,86.1,1.2l85.4,0.2l6.2,6.2c6.8,7,12.7,10.2,22.3,12.9c7.6,2,24.9,1.7,31.6-0.6c10.1-3.6,14.1-6.2,20.3-12.5
				l5.9-6.2h85.7C498.7,471.8,516.6,471.6,516.9,470.9z M484.6,456.9c0.2-0.6-0.5-4-1.4-7.6c-1.7-5.9-3.6-11.8-12.9-41.8
				c-1.7-5.4-6-19.4-9.8-31.5c-8.8-28.7-12.2-40-18.9-60.9c-2.9-9.6-8.1-26-11.3-36.4c-3.3-10.4-6-19.2-6.5-19.5
				c-0.5-0.5-7.4-2.2-15.6-3.9c-8.4-1.7-17-3.7-19.5-4.3c-14.9-3.9-33.8-6.7-45.9-6.7c-18.4,0-29.6,5.1-37.6,16.7
				c-1.2,2-2.8,3.6-3.1,3.6s-2-2-3.9-4.6c-8.4-11.8-19.5-16-41.1-15.3c-15.5,0.6-17.4,0.9-64.3,11.3c-3.7,0.8-7.9,1.7-9.5,2
				c-3.6,0.6-2.9-0.6-9,19.1c-7.6,24.2-18.7,60.4-26.8,86.8c-4,13.3-8.5,27.6-9.8,31.5s-4,12.7-6.2,19.8s-4.6,15.5-5.9,18.6
				c-5,15.6-6.8,22.5-6.2,23.2c0.8,0.8,19.4-0.6,37.2-2.8c53.3-6.4,79-7.1,104.3-3.4c11.9,1.7,29.4,6,34.7,8.4
				c4.5,2,7.4,2.2,12.1,0.2c4.8-2.2,19.4-5.9,30.1-7.7c20.8-3.7,52.8-3.7,85.7,0c12.4,1.5,42.5,4.6,55.2,5.7
				C483.1,457.8,484.3,457.7,484.6,456.9z"/>
			<path fill="#E30507" d="M463.3,515.9v8.5l-2.5,1.5c-3.1,1.9-5.7,2-6.4,0.3c-0.3-0.8-0.5-3.7-0.5-6.7c0-6.2-1.2-7.6-4-4.6
				c-1.5,1.4-1.9,2.8-2,8.7c-0.3,6.8-0.3,7-2.5,8.1c-2.2,1.2-5.6,1.5-6.4,0.6c-0.8-0.6-0.8-11.8,0-17.2c0.5-3.9,0.6-4.3,2.9-5.1
				c1.4-0.6,3.6-1.1,4.6-1.1s3.3-0.9,4.8-2c3.7-2.8,8.1-3.4,10.2-1.2C463.1,507.3,463.3,508.2,463.3,515.9z"/>
			<path fill="#E30507" d="M440.3,153.9c0.9,0.9,1.1,1.5,0.5,2.8c-0.8,1.4-3.9,2-4.8,0.9c-1.1-0.9-0.6-3.9,0.6-4.5
				C438.5,152.5,439.1,152.5,440.3,153.9z"/>
			<path fill="#E30507" d="M437.2,352.2c1.5,1.5,1.9,18.3,0.3,21.1c-0.5,0.9-4.5,4.5-8.8,7.9c-4.3,3.4-8.1,6.7-8.2,7
				c-0.5,0.6-5.9,5.3-27.3,23.4c-20.8,17.7-35.8,26.2-51,29c-6.7,1.4-53.3,1.7-55.3,0.5c-0.8-0.5-1.2-2.8-1.4-7.4
				c-0.2-3.7-0.5-7-0.8-7.3c-0.2-0.2-7.1-0.3-16-0.2v-3.7c5.3,0,7.3-0.3,8.7-1.4c1.2-0.8,8.2-7.1,16-14.1
				c7.6-7.1,23.2-21.5,34.7-32.2c29.9-27.7,31.6-29.3,31.1-30.8c-0.3-0.9-2.6-1.1-20.1-1.2v-3.9c2.2,0,4.6,0,7,0
				c23.4,0,26.8,0.3,27.6,2.8c0.3,0.6,0.5,4.2,0.6,8.1l0.2,7l-7.6,7.1c-4.3,4-9,8.4-10.5,9.8c-1.7,1.4-2.9,3.3-2.9,4
				c0,1.4,0.6,1.5,8.4,1.5h8.2l8.4-8.5l8.2-8.5h8.7c7.6,0,8.5,0.2,8.5,1.4c0,1.4-20.3,20.6-31,29.4C354,408.1,345.7,411,317.5,412
				l-14.6,0.6l-3.6,3.3c-6.2,6-6.5,6,18.9,5.6c20-0.3,22.8-0.6,27.3-2c5.6-1.7,16.4-7.7,23.1-12.7c11.9-8.7,61.4-51.9,61.4-53.6
				C429.9,350.8,435.2,350.2,437.2,352.2z M355.4,397.9c5.4-3.6,12.5-11,12.5-13c0-1.5-4.5-2.2-16-1.7c-10.8,0.2-8.8-0.8-22.3,11.2
				c-11.3,10.1-12.1,11-11.6,11.8c0.6,0.9,8.1,0.9,15.3,0C341.6,404.8,349.4,401.9,355.4,397.9z"/>
			<path fill="#E30507" d="M436.8,525.5c0.3,7.9,0.3,8.2-1.7,9.3c-1.1,0.8-3.6,1.5-5.3,1.7c-1.9,0.3-4.2,1.1-5.3,1.9
				c-4.3,3.1-11,3.6-12.9,0.8c-0.9-1.5-1.7-0.9-2.2,1.4c-0.6,2.5-3.6,3.9-8.1,3.9c-1.4,0-3.7,0.8-5.1,1.5c-4.3,2.6-9.3,1.7-10.7-2
				c-0.5-1.1-0.9-5-1.2-8.7c-0.2-3.7-0.6-6.8-0.8-7l0,0l0.5-0.9c0,0,0,0,0.2,0c0.5,0,0.6-0.3,0.6-0.8c0-1.1,4.3-2.5,6.7-2.3
				c2.2,0.3,2.2,0.3,2.6,6.5c0.5,6.5,0.9,8.2,2.8,8.2c2.3,0,3.6-3.3,3.6-9.8c0-7,0.5-7.7,5.1-8.5c3.7-0.6,4.3,0.3,4.3,7.4
				c0,2.9,0.3,5.6,0.6,5.6s1.4-1.1,2.3-2.2c0.9-1.2,4.3-3.7,7.9-5.6c5.7-3.1,7.1-4.5,5-5.1c-0.5-0.2-2.2,0.8-3.7,2
				c-2.2,1.7-3.7,2.3-5.9,2.3c-2.8,0-2.9-0.3-2.9-1.9c0-2.5,3.6-5.4,9-7.4c6-2.3,10.8-2.3,13-0.2
				C436.3,517.3,436.6,518.6,436.8,525.5z M424.8,533c2.3-1.9,2.6-3.9,0.6-3.9c-2.2,0-5.1,2.6-4.5,4.2
				C421.6,535,422.4,534.8,424.8,533z"/>
			<path fill="#E30507" d="M398.2,136.8c0,0.2-1.2,4.8-2.8,10.1c-1.5,5.4-2.5,9.9-2.5,10.2c0,0,0,0,0.2,0l-0.3,2.3l-2,2.2
				c-1.4,1.5-2.5,2-3.7,1.5c-2.6-0.8-3.6-2.3-4-7.3c-0.6-5.3-1.5-7.3-2.8-5.4c-0.5,0.6-1.2,2.6-1.7,4.5c-0.5,1.9-1.2,3.7-1.9,4
				c-1.4,1.2-5.1-0.5-5.1-2.2c0-1.9,6.8-23.6,7.9-24.8c2.2-2.6,5.7-0.2,6.5,4.3c0.2,1.5,0.8,4.2,1.2,5.9c0.6,2.8,0.8,2.8,1.7,1.5
				c0.6-0.9,1.4-2.8,2-4.5c0.6-1.5,1.5-3.3,2.2-3.6C394.6,134.9,398.2,135.7,398.2,136.8z"/>
			<path fill="#E30507" d="M384.2,527.6l-0.5,0.9c-0.2,0-0.3,2.2-0.3,5.1c0,6.8-1.1,10.5-4,13.8c-4,4.6-12.9,6.5-17.5,3.6
				c-2-1.2-4.2-4.8-4.2-7.1c0-1.1,4.3-3.1,6.7-3.1c1.2,0,2.6,0.8,3.4,1.7c1.7,2,3.7,1.5,4.8-1.2c0.5-1.1,0.6-6.2,0.6-11.3
				c0-10.5,0.3-11.2,4.8-11.9c3.9-0.8,4.8,0.3,5.3,5.3C383.5,525.5,383.9,527.2,384.2,527.6z"/>
			<path fill="#E30507" d="M337.6,535.6c2.8,2.6,2.8,2.8,2.8,8.1c0,6.5-1.4,9-6.7,11.6c-6.7,3.3-13.6,1.7-17.7-3.7l-2.3-3.3l-0.6,4
				c-0.5,3.4-0.8,4.2-2.5,4.6c-1.1,0.5-2.9,0.6-4.2,0.3c-2.3-0.5-2.8-2.2-2.9-10.4c-0.2-5-0.5-5.4-2.8-5.4c-2.2,0-2.6,0.9-2.8,9.1
				c-0.3,7-0.9,7.6-6.5,6.4l-2.3-0.5l-0.3-10.4c-0.2-7,0.2-10.7,0.8-11.3c1.1-1.4,4.8-1.4,6.8-0.2c1.2,0.8,2,0.8,3.6,0
				c2.2-0.9,7.3-1.2,9.3-0.5c0.8,0.3,2,2.2,2.9,4.3l1.7,3.9l2.3-3.4c3.6-4.8,7.1-6.2,15.6-6C333.9,533,335.6,533.8,337.6,535.6z
				 M330.6,549.1c0.5-0.6,0.9-2.6,0.9-4.6c0-3.3-0.3-3.9-2-4.6c-1.5-0.8-2.2-0.6-3.4,0.5c-2,1.7-2.8,5.1-1.7,7.7
				c0.6,1.5,1.4,2,3.1,2C328.8,550,330.2,549.7,330.6,549.1z"/>
			<path fill="#E30507" d="M336.1,350.9c0.2,0.8-4.8,6.5-12.4,14.3L311,378h-15.5c-8.5,0-23.7,0.2-33.8,0.2
				c-10.1,0.2-19.1,0.2-19.8,0c-1.1-0.2-1.9-0.8-1.9-1.2c0-0.8,17.7-17.7,25.9-24.6l2.5-2.2L302,350
				C332.5,349.8,335.9,350,336.1,350.9z"/>
			<path fill="#E30507" d="M328.2,122.4c0.6,2-0.8,3.9-2.8,3.9c-0.8,0-1.9-0.6-2.3-1.2c-1.5-1.9-0.3-4.3,2.3-4.3
				C326.9,120.9,327.8,121.3,328.2,122.4z"/>
			<path fill="#E30507" d="M294.2,385.8c0.6,0.5,0.9,0.9,0.6,1.4c-0.3,0.5-6.7,6.4-14.3,13c-19.1,17-22.8,20.6-21.5,21.4
				c0.5,0.3,4.3,0.6,8.7,0.6c0.3,0,0.6,0,1.1,0v3.7c-0.9,0-1.7,0-2.6,0c-11.3,0.2-18.3-0.2-18.6-0.6c-0.5-0.9,1.2-2.8,11.5-11.6
				c4.5-4,8.2-7.6,8.2-7.9c0-0.3-1.2-0.8-2.8-1.1c-4.2-0.8-26.2-0.5-27.9,0.6c-0.8,0.5-5.9,4.8-11.3,9.9c-7.4,7-10.4,9.3-12.4,9.6
				c-1.9,0.3-18.4,0.9-31.1,1.2l-0.2-3.9c2.6-0.2,5.1-0.5,6-0.9c0.9-0.5,5.1-3.9,9.5-7.6c4.2-3.6,10.5-9,13.9-12.1
				c3.4-2.9,8.7-7.4,11.6-10.1c3.1-2.6,6.2-5.3,7.1-5.7C231.9,384.9,292.5,384.7,294.2,385.8z"/>
			<path fill="#E30507" d="M286.3,548.5v8.2l-3.1,0.3c-1.9,0.2-3.4,0-3.7-0.5c-0.3-0.3-3.7-0.6-7.4-0.6c-6.5,0-7-0.2-9.1-2.3
				c-2.3-2.2-2.3-2.2-3.1-0.5c-0.8,1.2-1.5,1.5-3.9,1.5c-4.6,0-5.4-1.2-5.4-8.8c0-5-0.3-6.7-1.2-7.4c-0.8-0.8-1.5-0.8-2.5-0.2
				c-0.9,0.6-1.4,2.2-1.5,7c-0.2,7.3-0.9,8.4-4.6,7.7c-4.3-0.8-4.6-1.5-4.6-8.5c0-7.1-1.2-10.1-3.6-8.5c-1.1,0.8-1.5,2.2-1.9,7.1
				c-0.3,3.6-0.8,6.7-1.2,7.1c-1.1,1.1-6.2,0.3-7.3-1.1c-0.5-0.5-0.8-5.6-0.9-11.3l-0.3-10.5l2.6-0.3c1.4-0.2,3.6,0.2,5.1,0.8
				c1.2,0.6,4,0.9,6,0.8c2.8-0.2,4.5,0.2,6.8,1.5c2.8,1.5,3.6,1.5,6.2,0.8c6.8-2,12.4,2.6,12.4,10.4c0,6.2,0.5,6.8,3.1,4.2
				c1.5-1.5,3.3-2.3,6-2.8c7.3-0.9,8.2-1.2,7.9-2.6s-2-1.4-7.7-0.5c-5.4,0.9-8.2-2.9-4-5.6c2.8-1.9,12.9-1.9,16.7,0.2
				C285.4,535.9,286.3,538.9,286.3,548.5z M275.2,550.8c0.8-0.5,1.4-1.5,1.4-2.3c0-1.2-0.5-1.5-2.2-1.5c-1.2,0-2.8,0.5-3.3,1.2
				c-0.8,1.1-0.8,1.4,0.5,2.3C273.3,551.9,273.2,551.9,275.2,550.8z"/>
			<path fill="#E30507" d="M257.8,349.7c0.9,0.3,1.7,0.8,1.7,1.2c0,0.6-18,15.5-30.7,25.6c-2.8,2.3-17.8,14.4-30.2,24.5
				c-26.2,21.2-24.2,19.5-23.1,20.6c0.5,0.5,3.3,0.6,6,0.5l0.2,3.9c-6.4,0.2-11.9,0.3-13.9,0.2c-2.2,0-3.9-0.3-4.3-0.6
				c-0.6-0.6,2-3.3,9.9-9.8c4-3.3,11.3-9,16-12.9c4.6-3.9,13.2-10.5,18.6-15c18.4-14.9,22.9-18.7,22.5-19.5
				c-0.3-0.5-13.2-0.8-31.8-0.8c-35.9,0.5-32.8,1.2-32.8-7.4c0-3.6-0.5-5.3-1.2-6c-0.6-0.6-1.2-1.2-1.2-1.5c0-0.5,8.4-8.2,18.7-17.5
				l2.8,2.6c-10.5,9.5-10.8,10.1-10.8,10.8c0,1.2-1.2,1.1,43.1,0.8C238.6,349.4,256.9,349.4,257.8,349.7z"/>
			<path fill="#E30507" d="M205.3,149.8c3.9,11,4,11.6,2.6,12.5c-0.8,0.6-2,0.9-2.8,0.9c-0.8,0-2.5,0.8-3.7,1.5l-2.3,1.7l-3.1-1.7
				c-1.7-0.8-3.3-1.5-3.6-1.5c-0.2,0-0.3,1.1-0.2,2.5c0.2,2.2,0,2.5-2.3,2.9c-1.4,0.3-3.4,1.4-4.5,2.3c-1.5,1.5-2.5,1.7-5.3,1.4
				c-2.9-0.5-3.6-0.2-3.9,0.9c-0.3,0.9-1.5,2-2.9,2.6c-1.5,0.6-3.1,1.5-3.7,2.3c-1.4,1.7-4.3,1.5-7.4-0.3l-2.5-1.5l0.2,3.3
				c0.2,3.3,0.2,3.3-2.6,3.6c-2,0.2-2.9,0.8-3.6,2c-0.6,1.2-1.4,1.7-2.9,1.7c-1.7,0-2.6-0.8-5.1-5.1c-5.1-8.4-7.7-5.9-2.9,2.8l2.8,5
				l-1.7,1.5c-0.9,0.8-2,1.5-2.3,1.5c-0.5,0-2.2-2-3.7-4.5c-4-6.2-6.7-12.2-6.2-13.6c0.3-0.6,1.4-1.2,2.3-1.2s2.8-0.9,3.9-2.3
				c3.3-3.3,5-2.9,9.3,1.7l3.7,4l-1.5-4.3c-2-5.4-2-6.7-0.2-7.7c1.4-0.8,2-0.5,3.6,1.2c2.3,2.3,2.6,2.3,2.6,0c0-3.1,1.7-5.6,4.2-6.5
				c2-0.6,2.2-1.2,1.7-2.8c-0.2-1.1-0.8-2.9-0.9-3.9c-0.5-1.4-0.2-2.3,0.6-2.8c2.8-1.7,3.9-0.8,8.1,7.7c4.2,8.4,5.9,10.7,5.9,8.2
				c0-0.8,1.7-2.9,3.6-5.1c2.8-3.1,3.4-4,2.6-4.8c-0.8-0.8-1.4-0.5-2.8,1.2c-3.1,3.9-7.3,2.2-5.3-2.2c1.1-2.3,3.9-4.2,7.4-4.8
				c2.2-0.3,3.3,0,5.6,1.7l2.8,2v-2c0-3.3,1.7-5.6,4.6-6.8l2.9-1.2l-0.8-3.3c-0.8-2.9-0.6-3.6,0.6-4.3c2-1.5,3.3-1.4,4.2,0.3
				C201,137.7,203,143.5,205.3,149.8z M200.6,157.4c0.5-1.1,0.5-2.2-0.8-4c-2.5-4-5-1.5-3.1,3.1
				C197.9,159.1,199.6,159.6,200.6,157.4z M184.7,165.6c0.6-0.9,0.6-1.5-0.2-2.3c-0.9-0.8-1.2-0.8-2.2,0.5c-1.2,1.5-0.6,3.9,0.6,3.4
				C183.4,167,184.2,166.2,184.7,165.6z M167.8,171.5c0.8-2-1.9-6.7-3.6-6.4c-1.7,0.3-2.2,3.1-0.5,5.6
				C165.3,172.9,167.2,173.4,167.8,171.5z"/>
			<path fill="#E30507" d="M171.2,505.1l-0.2,14.9c-0.3,14.3-0.3,14.9-1.9,15c-0.9,0.2-2.5-0.2-3.7-0.5c-4-1.2-4.3-2-4.3-8.2v-5.7
				l-3.6-1.5c-5.4-2.3-5.9-2-6.5,3.9s-1.1,6.2-6.2,3.7l-3.6-1.9l-0.2-14.9L141,495h2.5c1.4,0,3.6,0.8,5.1,1.5
				c2.3,1.4,2.5,1.7,2.8,6.4l0.2,4.8l3.6,1.7c5,2.5,5.7,2.2,6.2-2.9l0.5-4.3l3.1,0.2c1.7,0.2,3.9,0.8,5,1.4L171.2,505.1z"/>
			<path fill="#E30507" d="M149.4,160.4c0.5,2.8-3.9,4.6-5,2c-0.9-2.3,0-3.9,2.5-3.9C148.6,158.5,149.2,158.8,149.4,160.4z"/>
			<path fill="#E30507" d="M134,185.8c1.7,3.6,2.2,8.7,0.8,11c-1.2,2.2-5.7,4.6-8.5,4.6c-1.5,0-3.6-0.6-4.6-1.4
				c-1.1-0.8-2.5-2.2-3.3-2.9c-2-2.3-9.9-15.5-9.9-16.4c0-0.5,0.8-1.5,2-2.2c2.6-1.7,3.3-1.1,7.7,6.7c4.5,7.6,6.8,10.1,8.7,8.8
				c2.5-1.5,2-4.2-2-10.7c-6-9.9-5.9-9.5-4-11.5c0.8-0.8,2-1.5,2.6-1.5C124.6,170.4,130.9,179.7,134,185.8z"/>
		</g>
	</g>
</g>
</svg>
